<?xml version="1.0" encoding="UTF-8" standalone="no"?>
<svg
   xmlns:dc="http://purl.org/dc/elements/1.1/"
   xmlns:cc="http://creativecommons.org/ns#"
   xmlns:rdf="http://www.w3.org/1999/02/22-rdf-syntax-ns#"
   xmlns:svg="http://www.w3.org/2000/svg"
   xmlns="http://www.w3.org/2000/svg"
   xmlns:sodipodi="http://sodipodi.sourceforge.net/DTD/sodipodi-0.dtd"
   xmlns:inkscape="http://www.inkscape.org/namespaces/inkscape"
   inkscape:version="1.0 (4035a4fb49, 2020-05-01)"
   sodipodi:docname="fr_letter_layout.svg"
   xml:space="preserve"
   enable-background="new 0 0 1190.55 841.89"
   viewBox="0 0 1190.55 841.89"
   height="841.89px"
   width="1190.55px"
   y="0px"
   x="0px"
   id="Layer_1"
   version="1.1"><metadata
   id="metadata1459"><rdf:RDF><cc:Work
       rdf:about=""><dc:format>image/svg+xml</dc:format><dc:type
         rdf:resource="http://purl.org/dc/dcmitype/StillImage" /></cc:Work></rdf:RDF></metadata><defs
   id="defs1457" /><sodipodi:namedview
   inkscape:current-layer="Layer_1"
   inkscape:window-maximized="1"
   inkscape:window-y="-8"
   inkscape:window-x="-8"
   inkscape:cy="438.8171"
   inkscape:cx="702.86383"
   inkscape:zoom="1.2253961"
   showgrid="false"
   id="namedview1455"
   inkscape:window-height="705"
   inkscape:window-width="1366"
   inkscape:pageshadow="2"
   inkscape:pageopacity="0"
   guidetolerance="10"
   gridtolerance="10"
   objecttolerance="10"
   borderopacity="1"
   bordercolor="#666666"
   pagecolor="#ffffff" />
<g
   transform="matrix(1.3274891,0,0,1.3274891,-157.52227,-100.83063)"
   id="g1452">
	<g
   id="XMLID_1_">
		<g
   id="g1289">
			<path
   id="path1251"
   d="m 679.51,473.2 c 1.8,0.99 2.71,2.511 2.71,4.561 0,1.56 -0.529,2.87 -1.58,3.92 -1.05,1.05 -2.33,1.58 -3.83,1.58 l -1.06,-0.08 c -0.59,0 -0.89,0.19 -0.89,0.55 h -1.21 V 472.2 c 0.14,-0.01 0.3,-0.02 0.479,-0.02 H 675 c 0.41,0 0.85,0.02 1.33,0.07 1.13,0.081 2.19,0.4 3.18,0.95 z"
   fill="#020202" />
			<path
   id="path1253"
   d="m 591.11,500.831 c 0.4,1.01 0.6,2.18 0.6,3.489 0,1.311 -0.27,2.53 -0.81,3.641 -0.54,1.12 -1.27,2.04 -2.17,2.779 -1.33,-0.989 -2.44,-1.489 -3.34,-1.489 -0.46,0 -0.69,0.17 -0.69,0.51 0,0.149 0.07,0.27 0.19,0.37 0.13,0.1 0.32,0.149 0.57,0.149 0.75,0 1.58,0.33 2.5,1 -1.34,0.83 -2.75,1.25 -4.22,1.25 -0.65,0 -1.17,-0.029 -1.56,-0.1 v -16.54 c 0.41,-0.07 0.85,-0.1 1.32,-0.1 2.4,0 4.37,0.79 5.92,2.38 0.73,0.75 1.29,1.64 1.69,2.661 z"
   fill="#020202" />
			<path
   id="path1255"
   d="m 521.85,456.77 c 0,2.521 -0.87,4.54 -2.6,6.07 -1.64,1.439 -3.62,2.16 -5.94,2.16 h -0.29 c -0.11,0 -0.24,0 -0.37,-0.011 v -16.1 c 1.11,0.01 2.05,0.08 2.83,0.21 2.39,0.4 4.13,1.521 5.23,3.37 0.76,1.281 1.14,2.711 1.14,4.301 z"
   fill="#020202" />
			<path
   id="path1257"
   d="m 586.71,449.39 c 2.7,0.94 4,2.77 3.9,5.47 -0.05,1.75 -0.62,3.181 -1.72,4.28 -1.07,1.1 -2.44,1.64 -4.1,1.64 l -1.14,-0.05 c -0.23,0 -0.42,0.05 -0.55,0.15 -0.14,0.1 -0.21,0.22 -0.21,0.38 h -1.19 v -12.41 h 1.08 c 1.61,0 2.93,0.18 3.93,0.54 z"
   fill="#020202" />
			<path
   id="path1259"
   d="m 681.26,450.99 c 1.53,1.591 2.3,3.57 2.3,5.95 0,2.51 -0.819,4.55 -2.449,6.13 -1.57,1.521 -3.49,2.28 -5.771,2.28 -0.49,0 -0.93,-0.03 -1.32,-0.1 v -16.54 c 0.41,-0.07 0.851,-0.101 1.32,-0.101 2.4,0.001 4.37,0.791 5.92,2.381 z"
   fill="#020202" />
			<path
   id="path1261"
   d="m 610.63,426.25 c 1.8,1 2.7,2.52 2.7,4.569 0,1.561 -0.521,2.87 -1.57,3.92 -1.05,1.051 -2.33,1.58 -3.84,1.58 l -1.05,-0.08 c -0.601,0 -0.89,0.19 -0.89,0.551 h -1.211 v -11.54 c 0.141,0 0.29,-0.011 0.471,-0.011 h 0.88 c 0.41,0 0.85,0.021 1.33,0.07 1.13,0.081 2.19,0.401 3.18,0.941 z"
   fill="#020202" />
			<path
   id="path1263"
   d="m 658.3,380.58 c 1.53,1.58 2.3,3.57 2.3,5.95 0,2.51 -0.819,4.55 -2.449,6.13 -1.57,1.52 -3.49,2.28 -5.771,2.28 -0.49,0 -0.93,-0.03 -1.32,-0.1 V 378.3 c 0.41,-0.07 0.851,-0.1 1.32,-0.1 2.4,0 4.37,0.79 5.92,2.38 z"
   fill="#020202" />
			<path
   id="path1265"
   d="m 672.22,409.32 3.21,6.91 h -3.76 c -0.65,0 -1.38,-0.03 -2.21,-0.1 z"
   fill="#020202" />
			<path
   id="path1267"
   d="m 557.42,385.85 3.2,6.91 h -3.75 c -0.65,0 -1.39,-0.03 -2.21,-0.1 z"
   fill="#020202" />
			<path
   id="path1269"
   d="m 544.81,386.36 c 0,2.52 -0.86,4.54 -2.6,6.06 -1.64,1.45 -3.62,2.17 -5.94,2.17 h -0.29 c -0.11,0 -0.24,0 -0.37,-0.01 v -16.11 c 1.11,0.02 2.05,0.09 2.83,0.22 2.39,0.39 4.13,1.52 5.23,3.37 0.76,1.28 1.14,2.71 1.14,4.3 z"
   fill="#020202" />
			<path
   id="path1271"
   d="M 708.27,308.39 V 535.16 H 481.5 V 308.39 Z m -23.44,64.25 c 0,-0.28 -0.2,-0.44 -0.58,-0.46 -0.19,-0.02 -0.37,-0.05 -0.55,-0.09 -0.181,-0.05 -0.561,-0.28 -1.141,-0.72 l -1.21,-0.95 c 1.011,-0.83 1.801,-1.86 2.37,-3.08 0.58,-1.23 0.86,-2.62 0.86,-4.16 0,-2.76 -0.87,-5 -2.61,-6.72 -1.72,-1.7 -3.93,-2.55 -6.62,-2.55 -2.71,0 -4.96,0.86 -6.75,2.59 -1.79,1.72 -2.689,3.89 -2.689,6.5 0,2.84 0.93,5.17 2.77,6.97 0.851,0.82 1.84,1.45 2.96,1.89 1.13,0.44 2.33,0.66 3.58,0.66 2.021,0 3.811,-0.51 5.391,-1.54 l 1.43,1.15 c 0.38,0.29 0.729,0.53 1.06,0.73 0.33,0.2 0.67,0.3 1.03,0.3 0.459,0 0.699,-0.17 0.699,-0.52 z m -0.25,84.3 c 0,-2.75 -0.87,-4.99 -2.61,-6.72 -1.72,-1.7 -3.93,-2.55 -6.62,-2.55 -2.71,0 -4.96,0.87 -6.76,2.59 -0.84,0.82 -1.49,1.77 -1.97,2.88 -0.47,1.11 -0.71,2.36 -0.71,3.75 0,1.38 0.25,2.67 0.75,3.84 0.5,1.18 1.18,2.18 2.02,3 0.851,0.83 1.84,1.46 2.96,1.9 1.13,0.439 2.23,0.66 3.311,0.66 1.069,0 2.01,-0.101 2.819,-0.311 1.641,-0.42 3.011,-1.17 4.131,-2.27 1.789,-1.769 2.679,-4.019 2.679,-6.769 z m -0.99,-37.49 -8.77,-18.96 -6.391,15.54 c -0.35,-0.09 -0.64,-0.13 -0.899,-0.13 -0.42,0 -0.63,0.18 -0.63,0.54 0,0.36 0.369,0.57 1.1,0.64 -0.25,0.58 -0.5,1.05 -0.75,1.41 -0.17,0.23 -0.25,0.44 -0.25,0.63 0,0.11 0.05,0.22 0.16,0.32 0.1,0.1 0.229,0.15 0.39,0.15 0.36,0 0.63,-0.26 0.83,-0.79 0.09,-0.28 0.19,-0.54 0.3,-0.78 l 0.37,-0.89 c 0.58,0.03 1.65,0.04 3.21,0.04 h 3.59 l 1.061,2.28 h 6.679 z m -0.23,-39.87 0.08,-1.59 c 0,-0.46 -0.19,-0.68 -0.561,-0.68 -0.42,0 -0.63,0.22 -0.63,0.66 0,0.13 0.02,0.37 0.06,0.72 0.03,0.35 0.051,0.65 0.051,0.91 v 6.95 c -0.011,2.8 -0.69,4.92 -2.021,6.37 -0.62,0.68 -1.33,1.17 -2.149,1.49 -0.82,0.32 -1.62,0.48 -2.41,0.48 -0.79,0 -1.521,-0.05 -2.17,-0.15 v -17.29 h -6.561 v 10.09 c 0,2.37 0.69,4.31 2.061,5.82 1.47,1.65 3.52,2.47 6.149,2.47 2.46,0 4.44,-0.8 5.92,-2.42 1.46,-1.58 2.181,-3.64 2.181,-6.17 v -7.66 z m 0.02,109.39 c 0,-0.33 -0.16,-0.49 -0.47,-0.49 l -1.01,0.24 c -0.381,0 -0.761,-0.07 -1.131,-0.22 -1.229,-0.471 -2.25,-1.94 -3.039,-4.41 1.67,-0.351 3,-1.12 4,-2.33 0.97,-1.18 1.46,-2.54 1.46,-4.08 0,-1.55 -0.521,-2.89 -1.58,-4.021 -0.48,-0.529 -1.07,-0.979 -1.74,-1.34 -0.68,-0.359 -1.36,-0.6 -2.04,-0.729 -0.69,-0.13 -1.23,-0.21 -1.6,-0.24 -0.261,-0.02 -0.53,-0.03 -0.83,-0.05 -0.29,-0.01 -0.631,-0.021 -1.011,-0.03 -0.37,-0.01 -1.18,-0.01 -2.42,-0.01 -1.239,0 -2.859,0 -4.859,0 v 18.14 h 6.54 v -5.67 h 1.21 c 0,0.141 0.06,0.271 0.18,0.4 0.13,0.13 0.36,0.189 0.7,0.189 l 0.31,-0.01 c 0.08,-0.01 0.19,-0.02 0.3,-0.02 0.12,0 0.2,0.01 0.24,0.05 0.05,0.03 0.101,0.12 0.16,0.27 l 0.38,0.91 c 0.7,1.72 1.55,2.89 2.55,3.49 0.641,0.42 1.34,0.64 2.11,0.64 1.06,10e-4 1.59,-0.229 1.59,-0.679 z m -0.42,-64.11 c 0,-0.34 -0.21,-0.5 -0.64,-0.5 -0.17,0 -0.431,0.03 -0.771,0.09 -0.28,0.051 -0.72,0.07 -1.31,0.07 H 668.8 c -0.84,0 -1.26,0.2 -1.26,0.61 0,0.34 0.21,0.51 0.65,0.51 0.14,0 0.38,-0.04 0.699,-0.1 0.25,-0.061 0.71,-0.091 1.36,-0.091 h 1.93 v 17.221 h 6.561 v -17.22 h 2.979 c 0.831,0 1.241,-0.2 1.241,-0.59 z m -1.56,-93.35 c 0.109,-0.13 0.17,-0.26 0.17,-0.41 0,-0.37 -0.32,-0.56 -0.96,-0.56 h -0.23 l -1.27,0.04 h -10.18 v 18.14 h 6.54 v -11.68 h 2.87 c 0.29,0 0.53,0.01 0.72,0.02 l 0.521,0.02 c 0.5,0 0.75,-0.17 0.75,-0.52 0,-0.34 -0.24,-0.51 -0.7,-0.51 -1.06,0.04 -1.57,0.06 -1.59,0.07 h -2.57 v -4.62 h 3.37 c 0.63,0 1.141,0.04 1.54,0.13 0.2,0.04 0.41,0.06 0.64,0.06 0.129,0 0.259,-0.06 0.379,-0.18 z m 0,164.29 c 0.109,-0.12 0.17,-0.26 0.17,-0.4 0,-0.38 -0.32,-0.569 -0.96,-0.569 h -0.23 l -1.27,0.04 h -10.18 v 18.14 h 6.54 v -11.68 h 2.87 c 0.29,0 0.53,0.01 0.72,0.029 l 0.521,0.011 c 0.5,0 0.75,-0.171 0.75,-0.511 0,-0.34 -0.24,-0.51 -0.7,-0.51 -1.06,0.04 -1.57,0.06 -1.59,0.06 h -2.57 v -4.619 h 3.37 c 0.63,0 1.141,0.05 1.54,0.13 0.2,0.05 0.41,0.069 0.64,0.069 0.129,0 0.259,-0.07 0.379,-0.19 z M 661.62,386.53 c 0,-2.75 -0.87,-4.99 -2.61,-6.72 -1.72,-1.7 -3.93,-2.55 -6.62,-2.55 -2.71,0 -4.96,0.86 -6.76,2.59 -0.84,0.81 -1.49,1.77 -1.97,2.88 -0.47,1.11 -0.71,2.35 -0.71,3.74 0,1.39 0.25,2.67 0.75,3.85 0.5,1.18 1.18,2.18 2.02,3 0.851,0.83 1.84,1.46 2.96,1.9 1.13,0.44 2.23,0.66 3.311,0.66 1.069,0 2.01,-0.1 2.819,-0.31 1.641,-0.42 3.011,-1.17 4.131,-2.27 1.789,-1.77 2.679,-4.02 2.679,-6.77 z m -1.22,110.4 0.08,-1.59 c 0,-0.45 -0.19,-0.681 -0.561,-0.681 -0.42,0 -0.63,0.221 -0.63,0.671 0,0.119 0.02,0.359 0.06,0.71 0.03,0.35 0.051,0.659 0.051,0.909 v 6.95 c -0.011,2.8 -0.69,4.92 -2.021,6.38 -0.62,0.67 -1.33,1.17 -2.149,1.48 -0.82,0.32 -1.62,0.479 -2.41,0.479 -0.79,0 -1.521,-0.05 -2.17,-0.14 v -17.3 h -6.561 v 10.09 c 0,2.37 0.69,4.31 2.061,5.82 1.47,1.649 3.52,2.479 6.149,2.479 2.46,0 4.44,-0.81 5.92,-2.43 1.46,-1.58 2.181,-3.63 2.181,-6.16 v -7.667 z m 0.02,-125.32 c 0,-0.32 -0.16,-0.48 -0.47,-0.48 l -1.01,0.24 c -0.381,0 -0.761,-0.07 -1.131,-0.22 -1.229,-0.48 -2.25,-1.95 -3.04,-4.41 1.671,-0.35 3,-1.13 4,-2.33 0.971,-1.18 1.461,-2.54 1.461,-4.08 0,-1.56 -0.521,-2.9 -1.58,-4.03 -0.48,-0.53 -1.07,-0.97 -1.74,-1.33 -0.68,-0.36 -1.36,-0.6 -2.05,-0.73 -0.681,-0.13 -1.221,-0.21 -1.591,-0.24 -0.26,-0.02 -0.529,-0.04 -0.829,-0.05 -0.29,-0.01 -0.631,-0.02 -1.011,-0.03 -0.37,-0.01 -1.18,-0.01 -2.42,-0.01 -1.24,0 -2.859,0 -4.859,0 v 18.14 h 6.54 v -5.67 h 1.21 c 0,0.14 0.06,0.27 0.18,0.4 0.13,0.13 0.36,0.19 0.7,0.19 l 0.31,-0.01 c 0.08,-0.02 0.18,-0.03 0.3,-0.03 0.11,0 0.2,0.02 0.24,0.05 0.05,0.04 0.101,0.13 0.16,0.27 l 0.38,0.91 c 0.7,1.73 1.55,2.89 2.55,3.49 0.641,0.43 1.34,0.64 2.11,0.64 1.06,0 1.59,-0.22 1.59,-0.68 z M 660,330.97 c 0,-0.33 -0.21,-0.5 -0.64,-0.5 -0.17,0 -0.431,0.03 -0.771,0.09 -0.28,0.05 -0.72,0.08 -1.31,0.08 h -11.44 c -0.84,0 -1.26,0.2 -1.26,0.6 0,0.34 0.21,0.52 0.65,0.52 0.14,0 0.38,-0.04 0.699,-0.11 0.25,-0.06 0.7,-0.09 1.36,-0.09 h 1.93 v 17.22 h 6.561 v -17.22 h 2.979 c 0.822,0 1.242,-0.19 1.242,-0.59 z m -1.78,108.51 c 0.351,-0.689 0.521,-1.53 0.521,-2.51 0,-0.99 -0.3,-1.94 -0.891,-2.86 -0.38,-0.58 -0.93,-1.229 -1.649,-1.96 -0.72,-0.72 -1.681,-1.569 -2.87,-2.54 -1.2,-0.97 -2,-1.72 -2.41,-2.239 -0.229,-0.301 -0.34,-0.62 -0.34,-0.98 0,-0.83 0.63,-1.25 1.91,-1.25 0.689,0 1.39,0.12 2.109,0.36 0.33,0.109 0.631,0.229 0.891,0.38 0.26,0.14 0.5,0.3 0.71,0.49 0.22,0.189 0.42,0.279 0.609,0.279 0.32,0 0.48,-0.2 0.48,-0.59 0,-0.189 -0.14,-0.4 -0.43,-0.63 -0.29,-0.23 -0.841,-0.49 -1.63,-0.79 -0.801,-0.29 -1.69,-0.44 -2.69,-0.44 -1.96,0 -3.51,0.48 -4.64,1.431 -0.53,0.43 -0.931,0.939 -1.2,1.52 -0.271,0.58 -0.41,1.17 -0.41,1.771 0,0.6 0.07,1.14 0.21,1.63 0.39,1.399 1.69,2.95 3.88,4.64 l 2.2,1.72 c 0.75,0.61 1.33,1.131 1.74,1.561 0.489,0.52 0.729,1.02 0.729,1.53 0,0.55 -0.28,1 -0.85,1.35 -0.26,0.16 -0.59,0.29 -0.98,0.38 -0.39,0.09 -0.939,0.141 -1.66,0.141 -0.72,0 -1.5,-0.141 -2.34,-0.421 -0.41,-0.14 -0.79,-0.3 -1.14,-0.5 -0.36,-0.189 -0.67,-0.409 -0.95,-0.67 -0.29,-0.26 -0.54,-0.38 -0.77,-0.38 -0.351,0 -0.53,0.2 -0.53,0.61 0,0.22 0.11,0.42 0.33,0.6 0.22,0.19 0.47,0.37 0.77,0.54 1.351,0.78 2.99,1.17 4.94,1.17 1.95,0 3.58,-0.52 4.899,-1.56 0.622,-0.503 1.112,-1.093 1.452,-1.783 z m -0.03,9.38 c 0.1,-0.12 0.159,-0.26 0.159,-0.399 0,-0.38 -0.319,-0.57 -0.97,-0.57 l -1.05,0.04 c -3.37,0 -6.73,0 -10.1,0 v 18.14 h 10.859 c 0.46,0 0.79,-0.06 0.97,-0.18 0.19,-0.12 0.29,-0.25 0.29,-0.41 0,-0.34 -0.22,-0.51 -0.659,-0.51 -0.181,0 -0.431,0.03 -0.74,0.09 -0.271,0.05 -0.72,0.08 -1.351,0.08 h -2.83 V 453.7 h 2.61 c 0.19,0 0.43,0.011 0.71,0.04 l 0.55,0.011 c 0.48,0 0.721,-0.181 0.721,-0.54 0,-0.16 -0.07,-0.29 -0.2,-0.38 -0.13,-0.091 -0.29,-0.131 -0.48,-0.131 -1.05,0.04 -1.56,0.061 -1.58,0.061 h -2.33 v -3.91 h 2.83 c 0.641,0 1.15,0.04 1.511,0.12 0.25,0.05 0.489,0.08 0.71,0.08 0.14,-10e-4 0.26,-0.071 0.37,-0.191 z m -2.63,40.66 v -18.14 h -6.54 v 18.14 z m 0,-70.41 v -18.14 h -6.54 v 18.14 z m -16.9,-56.05 c 0,-2.75 -0.87,-4.99 -2.61,-6.72 -1.72,-1.7 -3.93,-2.55 -6.62,-2.55 -2.71,0 -4.96,0.86 -6.76,2.59 -0.84,0.81 -1.49,1.77 -1.97,2.88 -0.47,1.11 -0.71,2.35 -0.71,3.74 0,1.39 0.25,2.67 0.75,3.85 0.5,1.18 1.18,2.18 2.02,3 0.851,0.83 1.84,1.46 2.96,1.9 1.13,0.44 2.23,0.66 3.311,0.66 1.069,0 2.01,-0.1 2.819,-0.31 1.641,-0.42 3.011,-1.17 4.131,-2.27 1.789,-1.77 2.679,-4.02 2.679,-6.77 z m -1.22,16.52 0.079,-1.59 c 0,-0.46 -0.189,-0.68 -0.56,-0.68 -0.42,0 -0.63,0.22 -0.63,0.66 0,0.13 0.02,0.37 0.06,0.72 0.03,0.35 0.051,0.65 0.051,0.91 v 6.95 c -0.011,2.8 -0.69,4.92 -2.021,6.37 -0.62,0.68 -1.33,1.17 -2.15,1.49 -0.819,0.32 -1.619,0.48 -2.409,0.48 -0.79,0 -1.521,-0.05 -2.17,-0.15 v -17.29 h -6.561 v 10.09 c 0,2.37 0.69,4.31 2.061,5.82 1.47,1.65 3.52,2.47 6.149,2.47 2.46,0 4.44,-0.8 5.92,-2.42 1.46,-1.58 2.181,-3.64 2.181,-6.17 v -7.66 z m -2.7,-33.42 c 2,-1.73 3,-3.98 3,-6.77 0,-1.77 -0.41,-3.35 -1.25,-4.74 -0.41,-0.69 -0.98,-1.35 -1.7,-1.99 -0.72,-0.64 -1.75,-1.17 -3.07,-1.58 -1.16,-0.35 -2.989,-0.52 -5.479,-0.52 h -5.33 v 18.14 h 4.33 c 1.93,0 3.42,-0.08 4.49,-0.24 1.919,-0.29 3.599,-1.06 5.009,-2.3 z m 2.16,55.78 v -0.45 c 0,-0.2 -0.07,-0.35 -0.2,-0.45 -0.13,-0.1 -0.271,-0.15 -0.42,-0.15 -0.36,0 -0.55,0.21 -0.55,0.64 0,0.16 0.02,0.44 0.069,0.84 0.03,0.25 0.05,0.67 0.05,1.25 v 7.64 L 621.91,400.21 v 15.95 c 0,0.99 -0.021,1.61 -0.061,1.86 -0.02,0.14 -0.04,0.27 -0.06,0.39 -0.021,0.11 -0.03,0.24 -0.03,0.37 0,0.13 0.05,0.25 0.16,0.36 0.11,0.12 0.25,0.17 0.42,0.17 0.17,0 0.311,-0.06 0.43,-0.18 0.12,-0.12 0.181,-0.29 0.181,-0.51 l -0.04,-1.28 v -8.4 l 13.939,10.93 V 403.8 Z m -0.93,87.4 c 0.19,-0.12 0.29,-0.25 0.29,-0.41 0,-0.34 -0.22,-0.51 -0.67,-0.51 -0.18,0 -0.42,0.029 -0.72,0.09 -0.25,0.05 -0.7,0.08 -1.34,0.08 h -4.271 l 6.521,-17.21 h -11.45 c -0.83,0 -1.25,0.2 -1.25,0.6 0,0.351 0.22,0.521 0.66,0.521 0.14,0 0.37,-0.04 0.71,-0.11 0.26,-0.06 0.72,-0.09 1.37,-0.09 h 3.27 l -6.689,17.22 h 12.569 c 0.48,-0.001 0.82,-0.061 1,-0.181 z m -0.75,-63.95 c 0.11,-0.12 0.16,-0.26 0.16,-0.41 0,-0.37 -0.32,-0.56 -0.96,-0.56 l -1.05,0.04 c -3.37,0 -6.73,0 -10.101,0 v 18.14 h 10.86 c 0.46,0 0.79,-0.06 0.97,-0.18 0.19,-0.12 0.28,-0.25 0.28,-0.41 0,-0.34 -0.21,-0.51 -0.649,-0.51 -0.181,0 -0.431,0.029 -0.74,0.09 -0.271,0.05 -0.721,0.08 -1.351,0.08 h -2.83 v -11.44 h 2.61 c 0.19,0 0.43,0.01 0.71,0.04 l 0.55,0.01 c 0.48,0 0.721,-0.18 0.721,-0.54 0,-0.159 -0.07,-0.29 -0.2,-0.38 -0.13,-0.09 -0.29,-0.13 -0.48,-0.13 -1.05,0.04 -1.56,0.061 -1.58,0.061 h -2.33 v -3.91 h 2.83 c 0.641,0 1.15,0.04 1.511,0.12 0.25,0.05 0.489,0.069 0.71,0.069 0.139,0 0.259,-0.06 0.359,-0.18 z m 0,23.47 c 0.11,-0.12 0.16,-0.26 0.16,-0.399 0,-0.38 -0.32,-0.57 -0.96,-0.57 l -1.05,0.04 c -3.37,0 -6.73,0 -10.101,0 v 18.14 h 10.86 c 0.46,0 0.79,-0.06 0.97,-0.18 0.19,-0.12 0.28,-0.25 0.28,-0.41 0,-0.34 -0.21,-0.51 -0.649,-0.51 -0.181,0 -0.431,0.03 -0.74,0.09 -0.271,0.05 -0.721,0.08 -1.351,0.08 h -2.83 V 453.7 h 2.61 c 0.19,0 0.43,0.011 0.71,0.04 l 0.55,0.011 c 0.48,0 0.721,-0.181 0.721,-0.54 0,-0.16 -0.07,-0.29 -0.2,-0.38 -0.13,-0.091 -0.29,-0.131 -0.48,-0.131 -1.05,0.04 -1.56,0.061 -1.58,0.061 h -2.33 v -3.91 h 2.83 c 0.641,0 1.15,0.04 1.511,0.12 0.25,0.05 0.489,0.08 0.71,0.08 0.139,-10e-4 0.259,-0.071 0.359,-0.191 z m 0,46.94 c 0.11,-0.12 0.16,-0.26 0.16,-0.4 0,-0.38 -0.32,-0.569 -0.96,-0.569 l -1.05,0.04 c -3.37,0 -6.73,0 -10.101,0 v 18.14 h 10.86 c 0.46,0 0.79,-0.061 0.97,-0.18 0.19,-0.11 0.28,-0.25 0.28,-0.41 0,-0.34 -0.21,-0.511 -0.649,-0.511 -0.181,0 -0.431,0.03 -0.74,0.091 -0.271,0.05 -0.721,0.08 -1.351,0.08 h -2.83 v -11.44 h 2.61 c 0.19,0 0.43,0.01 0.71,0.04 l 0.55,0.01 c 0.48,0 0.721,-0.18 0.721,-0.54 0,-0.16 -0.07,-0.29 -0.2,-0.38 -0.13,-0.08 -0.29,-0.13 -0.48,-0.13 -1.05,0.04 -1.56,0.06 -1.58,0.06 h -2.33 v -3.909 h 2.83 c 0.641,0 1.15,0.04 1.511,0.119 0.25,0.051 0.489,0.08 0.71,0.08 0.139,-10e-4 0.259,-0.071 0.359,-0.191 z M 614.5,442.02 c 0,-0.32 -0.16,-0.479 -0.47,-0.479 l -1.021,0.239 c -0.37,0 -0.75,-0.069 -1.12,-0.22 -1.229,-0.479 -2.25,-1.95 -3.04,-4.41 1.66,-0.35 3,-1.13 4,-2.33 0.971,-1.18 1.46,-2.54 1.46,-4.08 0,-1.55 -0.529,-2.899 -1.579,-4.02 -0.48,-0.53 -1.07,-0.98 -1.74,-1.34 -0.681,-0.36 -1.36,-0.601 -2.05,-0.73 -0.681,-0.13 -1.221,-0.21 -1.591,-0.24 -0.26,-0.02 -0.529,-0.029 -0.83,-0.05 -0.289,-0.01 -0.63,-0.02 -1.01,-0.029 -0.37,-0.011 -1.18,-0.011 -2.42,-0.011 -1.24,0 -2.859,0 -4.859,0 v 18.141 h 6.539 v -5.67 h 1.211 c 0,0.14 0.06,0.27 0.18,0.399 0.13,0.13 0.359,0.19 0.7,0.19 l 0.31,-0.01 c 0.08,-0.021 0.18,-0.021 0.3,-0.021 0.11,0 0.2,0.01 0.24,0.05 0.05,0.03 0.1,0.12 0.16,0.271 l 0.38,0.91 c 0.7,1.72 1.55,2.89 2.55,3.479 0.641,0.43 1.34,0.64 2.11,0.64 1.06,10e-4 1.59,-0.219 1.59,-0.679 z m -0.37,24.03 -5.13,-10.64 3.85,-5.779 c 0.44,-0.67 0.66,-1.101 0.66,-1.311 0,-0.37 -0.16,-0.55 -0.479,-0.55 -0.33,0 -0.58,0.21 -0.771,0.64 -0.24,0.641 -0.609,1.33 -1.1,2.061 l -2.68,3.85 -3.08,-6.41 h -6.8 l 5.21,10.811 c -2.369,3.45 -3.52,5.13 -3.55,5.18 -0.22,0.3 -0.49,0.61 -0.84,0.92 -0.37,0.33 -0.56,0.62 -0.56,0.87 0,0.34 0.17,0.5 0.52,0.5 0.11,0 0.21,-0.02 0.311,-0.069 0.27,-0.15 0.729,-0.671 1.369,-1.58 l 3.29,-4.721 3.011,6.23 h 6.769 z m -0.1,-106.88 c 0,-0.15 -0.05,-0.26 -0.15,-0.35 -0.1,-0.09 -0.229,-0.14 -0.38,-0.14 l -0.81,0.12 v -2.61 l 0.05,-1.64 c 0,-0.24 -0.07,-0.41 -0.21,-0.51 -0.13,-0.1 -0.271,-0.15 -0.391,-0.15 -0.359,0 -0.54,0.19 -0.54,0.59 0,0.08 0,0.18 0.011,0.3 l 0.05,0.39 c 0.03,0.22 0.04,0.7 0.04,1.45 v 2.23 c -0.26,0.01 -0.931,0.01 -2.03,0.01 -1.099,0 -2.57,0 -4.42,0 v -4.83 h -6.55 v 18.14 h 6.55 V 359.8 h 6.45 v 9.36 c 0,1.06 -0.03,1.72 -0.09,1.99 -0.04,0.21 -0.061,0.4 -0.061,0.57 0,0.17 0.05,0.31 0.141,0.43 0.1,0.11 0.229,0.16 0.399,0.16 0.17,0 0.32,-0.06 0.44,-0.18 0.13,-0.12 0.2,-0.29 0.2,-0.51 l -0.04,-1.31 v -10.52 c 0.09,-0.01 0.18,-0.02 0.27,-0.02 0.09,-0.01 0.18,-0.02 0.28,-0.04 0.531,-0.04 0.791,-0.23 0.791,-0.56 z m -0.09,136.65 v -0.449 c 0,-0.2 -0.07,-0.351 -0.2,-0.45 -0.13,-0.101 -0.271,-0.15 -0.42,-0.15 -0.36,0 -0.551,0.21 -0.551,0.64 0,0.16 0.021,0.44 0.061,0.851 0.04,0.24 0.06,0.66 0.06,1.24 v 7.64 l -13.939,-11.05 v 15.95 c 0,0.989 -0.021,1.609 -0.07,1.859 -0.01,0.141 -0.03,0.271 -0.05,0.391 -0.021,0.109 -0.04,0.239 -0.04,0.369 0,0.131 0.06,0.261 0.17,0.37 0.11,0.11 0.25,0.16 0.42,0.16 0.16,0 0.311,-0.06 0.43,-0.18 0.12,-0.12 0.181,-0.29 0.181,-0.51 l -0.04,-1.28 v -8.4 l 13.939,10.94 v -16.08 z m 0,-164.29 v -0.45 c 0,-0.2 -0.07,-0.35 -0.2,-0.45 -0.13,-0.1 -0.271,-0.16 -0.42,-0.16 -0.36,0 -0.551,0.22 -0.551,0.65 0,0.16 0.021,0.44 0.061,0.84 0.04,0.25 0.06,0.66 0.06,1.24 v 7.65 l -13.939,-11.06 v 15.95 c 0,1 -0.021,1.62 -0.07,1.86 -0.01,0.15 -0.03,0.28 -0.05,0.39 -0.021,0.12 -0.04,0.24 -0.04,0.38 0,0.13 0.06,0.25 0.17,0.36 0.11,0.11 0.25,0.17 0.42,0.17 0.16,0 0.311,-0.06 0.43,-0.18 0.12,-0.12 0.181,-0.29 0.181,-0.51 l -0.04,-1.29 v -8.39 l 13.939,10.93 v -16.08 z m 0.14,140.27 c 0,-0.34 -0.21,-0.5 -0.64,-0.5 -0.171,0 -0.431,0.03 -0.771,0.09 -0.28,0.05 -0.72,0.07 -1.31,0.07 h -11.44 c -0.84,0 -1.27,0.21 -1.27,0.609 0,0.34 0.22,0.511 0.659,0.511 0.141,0 0.381,-0.03 0.7,-0.101 0.25,-0.06 0.7,-0.09 1.36,-0.09 h 1.93 v 17.22 h 6.561 v -17.22 h 2.97 c 0.831,10e-4 1.251,-0.199 1.251,-0.589 z m -4.44,-52.69 v -18.14 h -6.54 v 18.14 z m 0,-23.47 V 377.5 h -6.54 v 18.14 z m -14.14,0.18 -6.58,-18.96 -4.38,8.71 -1.12,2.24 -5.67,-10.95 -5.27,15.78 -0.48,1.13 c -0.06,0.14 -0.12,0.26 -0.18,0.37 -0.05,0.11 -0.14,0.28 -0.26,0.5 -0.12,0.22 -0.2,0.47 -0.24,0.73 -0.02,0.16 0.01,0.3 0.1,0.43 0.08,0.12 0.21,0.2 0.37,0.21 0.39,0.04 0.68,-0.21 0.85,-0.75 0.07,-0.24 0.17,-0.58 0.29,-1.02 0.12,-0.43 0.32,-0.96 0.61,-1.59 l 1.79,-5.6 5.18,9.23 4.92,-10.26 3.18,9.8 h 6.89 z m -2.52,117.761 c 0,-0.28 -0.19,-0.431 -0.57,-0.46 -0.19,-0.011 -0.37,-0.04 -0.55,-0.091 -0.18,-0.04 -0.56,-0.279 -1.15,-0.72 l -1.2,-0.939 c 1.01,-0.83 1.8,-1.86 2.37,-3.091 0.57,-1.22 0.86,-2.609 0.86,-4.159 0,-2.75 -0.87,-4.99 -2.62,-6.721 -1.71,-1.7 -3.92,-2.55 -6.61,-2.55 -2.71,0 -4.96,0.87 -6.75,2.59 -1.79,1.73 -2.69,3.9 -2.69,6.5 0,2.851 0.92,5.17 2.77,6.98 0.85,0.819 1.83,1.45 2.96,1.89 1.13,0.44 2.32,0.66 3.58,0.66 2.02,0 3.81,-0.51 5.39,-1.54 l 1.43,1.14 c 0.38,0.29 0.73,0.54 1.06,0.74 0.33,0.2 0.67,0.3 1.03,0.3 0.46,0 0.69,-0.18 0.69,-0.529 z M 592.74,339.59 c 0,-2.75 -0.87,-4.99 -2.62,-6.72 -1.71,-1.7 -3.92,-2.55 -6.61,-2.55 -2.71,0 -4.96,0.86 -6.76,2.59 -0.84,0.81 -1.49,1.77 -1.97,2.88 -0.47,1.11 -0.71,2.35 -0.71,3.74 0,1.39 0.25,2.67 0.75,3.85 0.5,1.17 1.18,2.17 2.02,3 0.85,0.82 1.83,1.46 2.96,1.9 1.13,0.44 2.23,0.66 3.3,0.66 1.08,0 2.02,-0.11 2.83,-0.31 1.63,-0.42 3.01,-1.18 4.13,-2.27 1.79,-1.77 2.68,-4.03 2.68,-6.77 z m 0,23.47 c 0,-2.75 -0.87,-4.99 -2.62,-6.72 -1.71,-1.7 -3.92,-2.55 -6.61,-2.55 -2.71,0 -4.96,0.86 -6.76,2.59 -0.84,0.81 -1.49,1.77 -1.97,2.88 -0.47,1.11 -0.71,2.35 -0.71,3.74 0,1.39 0.25,2.67 0.75,3.85 0.5,1.18 1.18,2.18 2.02,3 0.85,0.83 1.83,1.46 2.96,1.9 1.13,0.44 2.23,0.66 3.3,0.66 1.08,0 2.02,-0.1 2.83,-0.31 1.63,-0.42 3.01,-1.17 4.13,-2.27 1.79,-1.77 2.68,-4.02 2.68,-6.77 z m -0.69,119.17 0.08,-1.06 c 0,-0.181 -0.05,-0.33 -0.15,-0.45 -0.1,-0.13 -0.25,-0.19 -0.44,-0.19 -0.36,0 -0.54,0.23 -0.54,0.681 0.05,0.77 0.07,1.14 0.07,1.149 v 1.23 c -0.35,0.899 -0.8,1.68 -1.34,2.34 -1.57,1.92 -3.63,2.88 -6.16,2.88 h -0.26 c -0.09,0 -0.19,0 -0.28,-0.01 v -16.59 c 0.43,-0.09 0.89,-0.13 1.4,-0.13 0.5,0 0.94,0.029 1.3,0.079 0.24,0.03 0.51,0.091 0.81,0.16 0.3,0.08 0.7,0.21 1.2,0.391 0.5,0.18 1.08,0.56 1.74,1.14 0.22,0.2 0.42,0.29 0.61,0.29 0.18,0 0.32,-0.06 0.43,-0.18 0.1,-0.11 0.15,-0.261 0.15,-0.42 0,-0.17 -0.15,-0.391 -0.45,-0.67 -0.3,-0.28 -0.81,-0.58 -1.54,-0.91 -1.19,-0.54 -2.51,-0.82 -3.99,-0.82 -2.9,0 -5.32,0.95 -7.24,2.84 -1.85,1.83 -2.77,4.061 -2.77,6.7 0,2.76 0.87,4.99 2.62,6.68 0.79,0.78 1.72,1.38 2.77,1.79 1.06,0.41 2.08,0.61 3.07,0.61 0.98,0 1.85,-0.08 2.59,-0.25 2.35,-0.55 4.13,-1.83 5.34,-3.84 v 2.029 l -0.03,0.881 c -0.03,0.22 -0.05,0.39 -0.05,0.489 0,0.391 0.19,0.59 0.56,0.59 0.16,0 0.29,-0.06 0.41,-0.18 0.11,-0.12 0.17,-0.28 0.17,-0.49 L 592.05,487 Z m -0.4,-27.72 c 0.03,-1.521 -0.43,-2.84 -1.4,-3.97 -0.48,-0.561 -1.06,-1.04 -1.75,-1.44 -0.69,-0.4 -1.33,-0.66 -1.92,-0.78 -0.59,-0.12 -1.17,-0.22 -1.71,-0.29 -0.55,-0.08 -2.15,-0.12 -4.8,-0.12 h -4.91 v 18.141 h 6.54 v -4.79 h 1.19 c 0,0.42 0.39,0.63 1.16,0.63 0.32,0 0.77,-0.04 1.33,-0.12 1.94,-0.31 3.46,-1.11 4.56,-2.41 1.09,-1.291 1.66,-2.911 1.71,-4.851 z m -0.13,-27.99 0.08,-1.59 c 0,-0.46 -0.19,-0.68 -0.56,-0.68 -0.42,0 -0.63,0.22 -0.63,0.659 0,0.131 0.02,0.37 0.05,0.721 0.04,0.35 0.06,0.66 0.06,0.91 v 6.949 c -0.02,2.801 -0.69,4.92 -2.02,6.37 -0.62,0.681 -1.33,1.181 -2.15,1.49 -0.82,0.32 -1.62,0.48 -2.41,0.48 -0.79,0 -1.52,-0.051 -2.18,-0.15 v -17.29 h -6.55 v 10.09 c 0,2.37 0.69,4.311 2.05,5.82 1.47,1.649 3.53,2.47 6.16,2.47 2.46,0 4.44,-0.8 5.92,-2.42 1.46,-1.58 2.18,-3.64 2.18,-6.17 z m -0.4,-25.13 c 0,-0.34 -0.22,-0.5 -0.64,-0.5 -0.17,0 -0.43,0.03 -0.77,0.09 -0.28,0.05 -0.72,0.07 -1.31,0.07 h -11.44 c -0.84,0 -1.27,0.2 -1.27,0.61 0,0.34 0.22,0.51 0.66,0.51 0.14,0 0.38,-0.04 0.7,-0.1 0.25,-0.06 0.7,-0.09 1.36,-0.09 h 1.92 v 17.22 h 6.57 v -17.22 h 2.97 c 0.83,0 1.25,-0.2 1.25,-0.59 z m -18.58,-52.51 -6.58,-18.96 -4.38,8.71 -1.12,2.24 -5.67,-10.95 -5.27,15.78 -0.48,1.13 c -0.06,0.14 -0.12,0.26 -0.18,0.37 -0.05,0.11 -0.14,0.28 -0.26,0.5 -0.12,0.22 -0.2,0.47 -0.24,0.73 -0.02,0.15 0.01,0.3 0.1,0.42 0.08,0.13 0.21,0.21 0.37,0.22 0.39,0.04 0.68,-0.22 0.85,-0.75 0.07,-0.24 0.17,-0.58 0.29,-1.02 0.12,-0.43 0.32,-0.96 0.6,-1.59 l 1.8,-5.6 5.18,9.23 4.92,-10.26 3.18,9.8 h 6.89 z m -3.75,47.1 -8.77,-18.96 -6.4,15.54 c -0.34,-0.09 -0.64,-0.13 -0.89,-0.13 -0.42,0 -0.63,0.18 -0.63,0.54 0,0.36 0.37,0.57 1.1,0.64 -0.25,0.58 -0.5,1.05 -0.76,1.41 -0.16,0.23 -0.24,0.44 -0.24,0.63 0,0.11 0.05,0.22 0.15,0.32 0.11,0.1 0.24,0.15 0.4,0.15 0.35,0 0.63,-0.26 0.82,-0.79 0.1,-0.28 0.2,-0.54 0.31,-0.78 l 0.37,-0.89 c 0.58,0.03 1.64,0.04 3.21,0.04 h 3.59 l 1.06,2.28 h 6.68 z m -0.58,117.01 -5.13,-10.64 3.85,-5.78 c 0.44,-0.67 0.66,-1.1 0.66,-1.31 0,-0.37 -0.16,-0.55 -0.48,-0.55 -0.33,0 -0.58,0.21 -0.77,0.64 -0.24,0.64 -0.61,1.33 -1.11,2.07 l -2.68,3.84 -3.07,-6.41 h -6.8 l 5.21,10.81 c -2.37,3.45 -3.52,5.131 -3.55,5.181 -0.22,0.3 -0.5,0.609 -0.84,0.92 -0.37,0.33 -0.56,0.62 -0.56,0.88 0,0.33 0.17,0.5 0.52,0.5 0.11,0 0.21,-0.03 0.31,-0.08 0.27,-0.15 0.72,-0.67 1.37,-1.58 l 3.29,-4.72 3.01,6.229 h 6.77 z m -0.19,-40.64 v -0.45 c 0,-0.2 -0.07,-0.35 -0.2,-0.45 -0.13,-0.1 -0.27,-0.149 -0.42,-0.149 -0.37,0 -0.55,0.21 -0.55,0.64 0,0.16 0.02,0.44 0.06,0.84 0.04,0.25 0.06,0.67 0.06,1.25 v 7.641 l -13.94,-11.05 v 15.949 c 0,0.99 -0.02,1.61 -0.07,1.86 -0.01,0.14 -0.03,0.27 -0.05,0.39 -0.03,0.11 -0.04,0.24 -0.04,0.37 0,0.13 0.06,0.25 0.17,0.37 0.11,0.11 0.25,0.16 0.42,0.16 0.16,0 0.31,-0.061 0.43,-0.18 0.12,-0.12 0.18,-0.29 0.18,-0.511 l -0.04,-1.279 v -8.4 l 13.94,10.94 v -16.08 z m -1.68,-117.37 c 0.11,-0.13 0.16,-0.26 0.16,-0.41 0,-0.37 -0.32,-0.56 -0.96,-0.56 l -1.05,0.04 c -3.37,0 -6.74,0 -10.1,0 v 18.14 h 10.86 c 0.46,0 0.78,-0.06 0.97,-0.18 0.19,-0.12 0.28,-0.26 0.28,-0.41 0,-0.34 -0.21,-0.51 -0.65,-0.51 -0.18,0 -0.43,0.03 -0.74,0.09 -0.27,0.05 -0.72,0.07 -1.35,0.07 h -2.83 v -11.43 h 2.61 c 0.19,0 0.43,0.01 0.71,0.04 l 0.55,0.01 c 0.48,0 0.72,-0.18 0.72,-0.54 0,-0.16 -0.07,-0.29 -0.2,-0.38 -0.13,-0.09 -0.29,-0.13 -0.48,-0.13 -1.05,0.04 -1.56,0.06 -1.58,0.06 h -2.33 v -3.91 h 2.83 c 0.64,0 1.15,0.04 1.51,0.12 0.25,0.05 0.49,0.07 0.71,0.07 0.14,0 0.26,-0.06 0.36,-0.18 z m 0,46.94 c 0.11,-0.13 0.16,-0.26 0.16,-0.41 0,-0.37 -0.32,-0.56 -0.96,-0.56 l -1.05,0.04 c -3.37,0 -6.74,0 -10.1,0 v 18.14 h 10.86 c 0.46,0 0.78,-0.06 0.97,-0.18 0.19,-0.12 0.28,-0.25 0.28,-0.41 0,-0.34 -0.21,-0.51 -0.65,-0.51 -0.18,0 -0.43,0.03 -0.74,0.09 -0.27,0.05 -0.72,0.08 -1.35,0.08 h -2.83 v -11.44 h 2.61 c 0.19,0 0.43,0.01 0.71,0.04 l 0.55,0.01 c 0.48,0 0.72,-0.18 0.72,-0.54 0,-0.16 -0.07,-0.29 -0.2,-0.38 -0.13,-0.09 -0.29,-0.13 -0.48,-0.13 -1.05,0.04 -1.56,0.06 -1.58,0.06 h -2.33 v -3.91 h 2.83 c 0.64,0 1.15,0.04 1.51,0.12 0.25,0.05 0.49,0.07 0.71,0.07 0.14,0 0.26,-0.06 0.36,-0.18 z m 0,23.47 c 0.11,-0.12 0.16,-0.26 0.16,-0.41 0,-0.37 -0.32,-0.56 -0.96,-0.56 l -1.05,0.04 c -3.37,0 -6.74,0 -10.1,0 v 18.14 h 10.86 c 0.46,0 0.78,-0.06 0.97,-0.18 0.19,-0.12 0.28,-0.25 0.28,-0.41 0,-0.34 -0.21,-0.51 -0.65,-0.51 -0.18,0 -0.43,0.029 -0.74,0.09 -0.27,0.05 -0.72,0.08 -1.35,0.08 h -2.83 v -11.44 h 2.61 c 0.19,0 0.43,0.01 0.71,0.04 l 0.55,0.01 c 0.48,0 0.72,-0.18 0.72,-0.54 0,-0.159 -0.07,-0.29 -0.2,-0.38 -0.13,-0.09 -0.29,-0.13 -0.48,-0.13 -1.05,0.04 -1.56,0.061 -1.58,0.061 h -2.33 v -3.91 h 2.83 c 0.64,0 1.15,0.04 1.51,0.12 0.25,0.05 0.49,0.069 0.71,0.069 0.14,0 0.26,-0.06 0.36,-0.18 z M 566,465.871 c 0.19,-0.12 0.28,-0.25 0.28,-0.41 0,-0.38 -0.23,-0.57 -0.68,-0.57 -0.05,0 -0.27,0.05 -0.66,0.16 -0.39,0.1 -0.85,0.16 -1.39,0.16 h -2.4 V 447.91 h -6.54 v 18.141 h 10.41 c 0.47,-10e-4 0.8,-0.061 0.98,-0.18 z M 545.6,356.1 l 0.08,-1.59 c 0,-0.45 -0.19,-0.67 -0.57,-0.67 -0.41,0 -0.62,0.22 -0.62,0.66 0,0.13 0.02,0.37 0.05,0.72 0.04,0.35 0.06,0.65 0.06,0.91 v 6.95 c -0.02,2.8 -0.69,4.92 -2.02,6.37 -0.62,0.68 -1.34,1.17 -2.15,1.49 -0.82,0.32 -1.62,0.47 -2.41,0.47 -0.79,0 -1.52,-0.04 -2.18,-0.14 v -17.29 h -6.55 v 10.09 c 0,2.37 0.69,4.31 2.05,5.82 1.47,1.65 3.53,2.47 6.16,2.47 2.46,0 4.43,-0.8 5.92,-2.42 1.46,-1.58 2.18,-3.64 2.18,-6.17 v -7.67 z m -2.7,-9.94 c 2,-1.73 3,-3.98 3,-6.77 0,-1.77 -0.42,-3.35 -1.25,-4.74 -0.41,-0.69 -0.98,-1.35 -1.7,-1.99 -0.72,-0.64 -1.75,-1.17 -3.07,-1.58 -1.17,-0.35 -2.99,-0.52 -5.48,-0.52 h -5.33 v 18.14 h 4.33 c 1.92,0 3.42,-0.08 4.49,-0.24 1.92,-0.29 3.59,-1.06 5.01,-2.3 z m 0,46.94 c 2,-1.72 3,-3.98 3,-6.77 0,-1.77 -0.42,-3.35 -1.25,-4.74 -0.41,-0.69 -0.98,-1.35 -1.7,-1.99 -0.72,-0.64 -1.75,-1.17 -3.07,-1.58 -1.17,-0.35 -2.99,-0.52 -5.48,-0.52 h -5.33 v 18.14 h 4.33 c 1.92,0 3.42,-0.08 4.49,-0.24 1.92,-0.29 3.59,-1.06 5.01,-2.3 z m 2.25,36.481 c 0,-0.141 -0.05,-0.261 -0.15,-0.351 -0.1,-0.09 -0.23,-0.14 -0.39,-0.14 l -0.8,0.12 v -2.601 l 0.05,-1.64 c 0,-0.24 -0.07,-0.41 -0.21,-0.521 -0.13,-0.1 -0.27,-0.149 -0.4,-0.149 -0.35,0 -0.53,0.2 -0.53,0.59 0,0.08 0,0.19 0.01,0.31 l 0.05,0.381 c 0.03,0.22 0.04,0.71 0.04,1.449 v 2.23 c -0.26,0.01 -0.93,0.01 -2.03,0.01 -1.1,0 -2.57,0 -4.42,0 v -4.83 h -6.55 v 18.141 h 6.55 v -12.37 h 6.45 v 9.359 c 0,1.061 -0.03,1.721 -0.09,1.99 -0.04,0.21 -0.06,0.4 -0.06,0.57 0,0.18 0.04,0.319 0.14,0.43 0.1,0.111 0.23,0.16 0.4,0.16 0.17,0 0.31,-0.061 0.44,-0.18 0.13,-0.12 0.19,-0.29 0.19,-0.511 l -0.03,-1.31 V 430.2 c 0.09,-0.01 0.18,-0.02 0.27,-0.02 0.09,-0.01 0.18,-0.021 0.28,-0.03 0.53,-0.05 0.79,-0.24 0.79,-0.569 z m -1.73,-13.571 c 0.35,-0.69 0.52,-1.53 0.52,-2.51 0,-0.99 -0.3,-1.94 -0.9,-2.86 -0.37,-0.58 -0.92,-1.23 -1.64,-1.96 -0.73,-0.73 -1.68,-1.57 -2.88,-2.54 -1.19,-0.97 -1.99,-1.72 -2.4,-2.24 -0.23,-0.3 -0.35,-0.63 -0.35,-0.98 0,-0.83 0.64,-1.25 1.91,-1.25 0.7,0 1.4,0.12 2.12,0.36 0.33,0.11 0.63,0.23 0.89,0.38 0.26,0.14 0.5,0.3 0.71,0.49 0.22,0.19 0.42,0.28 0.6,0.28 0.33,0 0.49,-0.2 0.49,-0.59 0,-0.19 -0.14,-0.4 -0.43,-0.63 -0.29,-0.23 -0.84,-0.49 -1.63,-0.79 -0.8,-0.29 -1.69,-0.44 -2.69,-0.44 -1.96,0 -3.51,0.48 -4.65,1.43 -0.53,0.43 -0.93,0.94 -1.19,1.52 -0.27,0.58 -0.41,1.17 -0.41,1.77 0,0.6 0.07,1.14 0.21,1.63 0.39,1.4 1.68,2.95 3.88,4.64 l 2.19,1.72 c 0.76,0.61 1.34,1.13 1.75,1.56 0.48,0.52 0.73,1.02 0.73,1.53 0,0.55 -0.28,0.99 -0.85,1.34 -0.26,0.17 -0.59,0.3 -0.98,0.39 -0.39,0.09 -0.94,0.14 -1.66,0.14 -0.72,0 -1.5,-0.14 -2.35,-0.42 -0.41,-0.14 -0.79,-0.3 -1.14,-0.5 -0.35,-0.19 -0.66,-0.41 -0.95,-0.67 -0.28,-0.26 -0.53,-0.38 -0.76,-0.38 -0.36,0 -0.53,0.2 -0.53,0.61 0,0.22 0.11,0.42 0.33,0.6 0.21,0.19 0.47,0.37 0.77,0.54 1.34,0.78 2.99,1.17 4.94,1.17 1.95,0 3.58,-0.52 4.9,-1.56 0.62,-0.5 1.11,-1.09 1.45,-1.78 z m -2.67,96.98 v -18.14 h -6.53 v 18.14 z m 0,-23.47 v -18.14 h -6.53 v 18.14 z m 0,-23.47 v -18.14 h -6.53 v 18.141 h 6.53 z m -16.65,-117 c 0,-0.28 -0.19,-0.43 -0.57,-0.46 -0.19,-0.02 -0.38,-0.05 -0.56,-0.09 -0.18,-0.04 -0.56,-0.28 -1.14,-0.72 l -1.2,-0.95 c 1.01,-0.82 1.8,-1.85 2.37,-3.08 0.57,-1.23 0.86,-2.61 0.86,-4.16 0,-2.75 -0.87,-4.99 -2.62,-6.72 -1.71,-1.7 -3.92,-2.55 -6.61,-2.55 -2.71,0 -4.96,0.86 -6.75,2.59 -1.79,1.73 -2.69,3.89 -2.69,6.5 0,2.85 0.92,5.17 2.77,6.98 0.85,0.82 1.83,1.45 2.96,1.89 1.13,0.44 2.32,0.66 3.58,0.66 2.02,0 3.81,-0.52 5.38,-1.54 l 1.44,1.14 c 0.38,0.29 0.73,0.54 1.06,0.74 0.33,0.2 0.67,0.3 1.03,0.3 0.46,0 0.69,-0.18 0.69,-0.53 z m -1.46,7.05 0.08,-1.59 c 0,-0.45 -0.19,-0.67 -0.57,-0.67 -0.42,0 -0.62,0.22 -0.62,0.66 0,0.13 0.01,0.37 0.05,0.72 0.04,0.35 0.06,0.65 0.06,0.91 v 6.95 c -0.02,2.8 -0.69,4.92 -2.02,6.37 -0.62,0.68 -1.34,1.17 -2.15,1.49 -0.82,0.32 -1.62,0.47 -2.41,0.47 -0.79,0 -1.52,-0.04 -2.18,-0.14 v -17.29 h -6.55 v 10.09 c 0,2.37 0.69,4.31 2.05,5.82 1.47,1.65 3.52,2.47 6.16,2.47 2.46,0 4.43,-0.8 5.92,-2.42 1.45,-1.58 2.18,-3.64 2.18,-6.17 v -7.67 z m 0.07,84.03 c 0,-0.4 -0.17,-0.59 -0.52,-0.59 -0.15,0 -0.28,0.04 -0.39,0.13 -0.11,0.08 -0.26,0.229 -0.45,0.46 -0.52,0.6 -1.3,1.05 -2.33,1.359 -0.46,0.131 -0.93,0.23 -1.41,0.29 -0.48,0.061 -0.95,0.091 -1.41,0.091 -0.46,0 -0.99,-0.051 -1.59,-0.15 v -16.44 c 0.49,-0.1 1.12,-0.149 1.88,-0.149 0.75,0 1.59,0.14 2.52,0.42 0.45,0.14 0.87,0.31 1.25,0.51 0.38,0.2 0.68,0.42 0.9,0.66 0.22,0.25 0.47,0.37 0.74,0.37 0.14,0 0.26,-0.061 0.37,-0.181 0.11,-0.119 0.16,-0.26 0.16,-0.43 0,-0.399 -0.65,-0.88 -1.94,-1.46 -1.21,-0.54 -2.62,-0.82 -4.22,-0.82 -2.84,0 -5.21,0.851 -7.09,2.551 -0.88,0.81 -1.58,1.77 -2.09,2.899 -0.5,1.12 -0.75,2.351 -0.75,3.69 0,2.79 0.89,5.06 2.68,6.83 0.85,0.83 1.88,1.489 3.09,1.95 1.21,0.47 2.47,0.699 3.78,0.699 1.31,0 2.56,-0.18 3.74,-0.529 0.64,-0.181 1.41,-0.58 2.34,-1.19 0.49,-0.32 0.74,-0.65 0.74,-0.97 z m -2.77,23.38 c 2,-1.72 3,-3.98 3,-6.771 0,-1.77 -0.42,-3.35 -1.25,-4.739 -0.41,-0.681 -0.98,-1.351 -1.7,-1.99 -0.73,-0.64 -1.75,-1.16 -3.07,-1.57 -1.17,-0.35 -2.99,-0.53 -5.48,-0.53 h -5.33 v 18.141 h 4.33 c 1.92,0 3.42,-0.08 4.49,-0.24 1.92,-0.291 3.59,-1.061 5.01,-2.301 z m 2.34,8.65 c 0.11,-0.25 0.17,-0.46 0.17,-0.649 0,-0.37 -0.18,-0.55 -0.53,-0.55 -0.2,0 -0.36,0.06 -0.47,0.199 -0.11,0.131 -0.22,0.37 -0.31,0.711 -0.09,0.34 -0.29,0.899 -0.6,1.67 l -2.86,7.149 -4.08,-9.59 h -7 l 8.44,18.85 6.96,-17.2 c 0.07,-0.15 0.16,-0.35 0.28,-0.59 z m -0.18,-70.22 v -0.45 c 0,-0.2 -0.07,-0.35 -0.2,-0.45 -0.13,-0.1 -0.27,-0.15 -0.42,-0.15 -0.37,0 -0.55,0.21 -0.55,0.64 0,0.16 0.02,0.44 0.06,0.84 0.04,0.25 0.05,0.67 0.05,1.25 v 7.64 l -13.93,-11.05 v 15.95 c 0,0.99 -0.02,1.61 -0.07,1.86 -0.01,0.14 -0.03,0.27 -0.05,0.39 -0.03,0.11 -0.04,0.24 -0.04,0.37 0,0.13 0.06,0.25 0.17,0.36 0.11,0.12 0.25,0.17 0.42,0.17 0.16,0 0.31,-0.06 0.43,-0.18 0.12,-0.12 0.18,-0.29 0.18,-0.51 l -0.04,-1.28 v -8.4 l 13.93,10.93 V 403.8 Z m -1.64,107.95 c 0.35,-0.69 0.52,-1.52 0.52,-2.51 0,-0.99 -0.3,-1.94 -0.9,-2.851 -0.37,-0.59 -0.92,-1.239 -1.64,-1.97 -0.73,-0.72 -1.68,-1.57 -2.88,-2.54 -1.19,-0.97 -1.99,-1.72 -2.4,-2.24 -0.23,-0.3 -0.35,-0.62 -0.35,-0.97 0,-0.84 0.64,-1.26 1.91,-1.26 0.7,0 1.4,0.12 2.12,0.359 0.33,0.11 0.63,0.24 0.89,0.381 0.26,0.14 0.5,0.3 0.71,0.489 0.22,0.19 0.42,0.28 0.6,0.28 0.33,0 0.49,-0.189 0.49,-0.59 0,-0.18 -0.14,-0.39 -0.43,-0.62 -0.29,-0.24 -0.84,-0.5 -1.63,-0.79 -0.8,-0.3 -1.7,-0.45 -2.7,-0.45 -1.95,0 -3.5,0.48 -4.64,1.431 -0.53,0.43 -0.93,0.939 -1.2,1.52 -0.26,0.58 -0.4,1.17 -0.4,1.771 0,0.6 0.07,1.14 0.21,1.63 0.39,1.399 1.68,2.949 3.88,4.64 l 2.19,1.72 c 0.76,0.61 1.34,1.13 1.75,1.57 0.48,0.51 0.73,1.02 0.73,1.52 0,0.551 -0.28,1 -0.85,1.351 -0.26,0.16 -0.59,0.29 -0.98,0.38 -0.39,0.1 -0.94,0.14 -1.66,0.14 -0.72,0 -1.5,-0.14 -2.35,-0.42 -0.41,-0.14 -0.79,-0.3 -1.14,-0.489 -0.35,-0.2 -0.66,-0.421 -0.95,-0.681 -0.28,-0.25 -0.53,-0.38 -0.77,-0.38 -0.35,0 -0.52,0.2 -0.52,0.61 0,0.22 0.11,0.42 0.33,0.609 0.21,0.181 0.47,0.36 0.77,0.53 1.34,0.78 2.99,1.17 4.94,1.17 1.95,0 3.58,-0.52 4.9,-1.56 0.62,-0.5 1.11,-1.089 1.45,-1.78 z M 517.79,395.64 V 377.5 h -6.53 v 18.14 z"
   fill="#020202" />
			<path
   id="path1273"
   d="m 682.95,359.88 c 0.41,1.02 0.609,2.18 0.609,3.49 0,1.32 -0.27,2.53 -0.819,3.65 -0.54,1.11 -1.271,2.04 -2.17,2.77 -1.33,-0.99 -2.44,-1.48 -3.33,-1.48 -0.471,0 -0.7,0.17 -0.7,0.51 0,0.14 0.07,0.27 0.2,0.36 0.12,0.1 0.31,0.15 0.56,0.15 0.75,0 1.58,0.33 2.5,1 -1.34,0.84 -2.75,1.26 -4.22,1.26 -0.65,0 -1.17,-0.04 -1.561,-0.11 v -16.54 c 0.41,-0.06 0.851,-0.1 1.32,-0.1 2.4,0 4.37,0.8 5.92,2.39 0.731,0.75 1.291,1.63 1.691,2.65 z"
   fill="#020202" />
			<path
   id="path1275"
   d="m 656.55,355.84 c 1.8,0.99 2.71,2.52 2.71,4.57 0,1.56 -0.529,2.87 -1.58,3.92 -1.05,1.05 -2.33,1.58 -3.84,1.58 l -1.05,-0.08 c -0.59,0 -0.89,0.18 -0.89,0.55 h -1.21 v -11.54 c 0.14,-0.01 0.3,-0.01 0.479,-0.01 h 0.87 c 0.41,0 0.85,0.02 1.33,0.06 1.131,0.09 2.191,0.41 3.181,0.95 z"
   fill="#020202" />
			<path
   id="path1277"
   d="m 636.65,339.42 c 0,2.52 -0.86,4.54 -2.601,6.06 -1.64,1.45 -3.62,2.17 -5.93,2.17 h -0.3 c -0.11,0 -0.24,-0.01 -0.37,-0.01 v -16.11 c 1.109,0.02 2.05,0.09 2.83,0.22 2.39,0.39 4.13,1.52 5.229,3.37 0.762,1.28 1.142,2.71 1.142,4.3 z"
   fill="#020202" />
			<path
   id="path1279"
   d="m 635.34,357.11 c 1.53,1.58 2.3,3.57 2.3,5.95 0,2.51 -0.819,4.55 -2.449,6.13 -1.57,1.52 -3.49,2.28 -5.771,2.28 -0.49,0 -0.93,-0.03 -1.32,-0.1 v -16.54 c 0.41,-0.07 0.851,-0.1 1.32,-0.1 2.4,0 4.37,0.79 5.92,2.38 z"
   fill="#020202" />
			<path
   id="path1281"
   d="m 589.42,333.64 c 1.53,1.58 2.29,3.57 2.29,5.95 0,2.5 -0.81,4.55 -2.44,6.13 -1.57,1.52 -3.49,2.28 -5.77,2.28 -0.49,0 -0.93,-0.03 -1.32,-0.1 v -16.54 c 0.41,-0.07 0.85,-0.1 1.32,-0.1 2.4,0 4.37,0.79 5.92,2.38 z"
   fill="#020202" />
			<path
   id="path1283"
   d="m 589.42,357.11 c 1.53,1.58 2.29,3.57 2.29,5.95 0,2.51 -0.81,4.55 -2.44,6.13 -1.57,1.52 -3.49,2.28 -5.77,2.28 -0.49,0 -0.93,-0.03 -1.32,-0.1 v -16.54 c 0.41,-0.07 0.85,-0.1 1.32,-0.1 2.4,0 4.37,0.79 5.92,2.38 z"
   fill="#020202" />
			<path
   id="path1285"
   d="m 544.81,339.42 c 0,2.52 -0.86,4.54 -2.6,6.06 -1.64,1.45 -3.62,2.17 -5.94,2.17 h -0.29 c -0.11,0 -0.24,-0.01 -0.37,-0.01 v -16.11 c 1.11,0.02 2.05,0.09 2.83,0.22 2.39,0.39 4.13,1.52 5.23,3.37 0.76,1.28 1.14,2.71 1.14,4.3 z"
   fill="#020202" />
			<path
   id="path1287"
   d="m 522.23,336.29 c 0.4,1.02 0.6,2.19 0.6,3.5 0,1.31 -0.27,2.52 -0.81,3.64 -0.54,1.12 -1.27,2.04 -2.17,2.78 -1.33,-1 -2.44,-1.49 -3.34,-1.49 -0.46,0 -0.69,0.17 -0.69,0.51 0,0.15 0.06,0.27 0.19,0.37 0.13,0.1 0.32,0.14 0.57,0.14 0.75,0 1.58,0.34 2.5,1 -1.35,0.84 -2.75,1.26 -4.22,1.26 -0.65,0 -1.17,-0.03 -1.57,-0.1 v -16.54 c 0.41,-0.07 0.85,-0.1 1.32,-0.1 2.41,0 4.38,0.79 5.93,2.38 0.72,0.75 1.29,1.64 1.69,2.65 z"
   fill="#020202" />
		</g>
		<g
   id="g1449">
			<rect
   id="rect1291"
   height="226.77"
   width="226.77"
   stroke-miterlimit="10"
   stroke="#ffffff"
   fill="none"
   y="308.39001"
   x="481.5" />
			<path
   id="path1293"
   d="m 548.83,349.07 c -0.16,-0.01 -0.29,-0.09 -0.37,-0.22 -0.09,-0.12 -0.12,-0.27 -0.1,-0.42 0.04,-0.26 0.12,-0.51 0.24,-0.73 0.12,-0.22 0.21,-0.39 0.26,-0.5 0.06,-0.11 0.12,-0.23 0.18,-0.37 l 0.48,-1.13 5.27,-15.78 5.67,10.95 1.12,-2.24 4.38,-8.71 6.58,18.96 h -6.89 l -3.18,-9.8 -4.92,10.26 -5.18,-9.23 -1.8,5.6 c -0.28,0.63 -0.48,1.16 -0.6,1.59 -0.12,0.44 -0.22,0.78 -0.29,1.02 -0.17,0.53 -0.46,0.79 -0.85,0.75"
   stroke-miterlimit="10"
   stroke="#ffffff"
   fill="none" />
			<path
   id="path1295"
   d="m 599.95,346.92 0.04,1.29 c 0,0.22 -0.061,0.39 -0.181,0.51 -0.119,0.12 -0.27,0.18 -0.43,0.18 -0.17,0 -0.31,-0.06 -0.42,-0.17 -0.11,-0.11 -0.17,-0.23 -0.17,-0.36 0,-0.14 0.02,-0.26 0.04,-0.38 0.02,-0.11 0.04,-0.24 0.05,-0.39 0.05,-0.24 0.07,-0.86 0.07,-1.86 v -15.95 l 13.939,11.06 v -7.65 c 0,-0.58 -0.02,-0.99 -0.06,-1.24 -0.04,-0.4 -0.061,-0.68 -0.061,-0.84 0,-0.43 0.19,-0.65 0.551,-0.65 0.149,0 0.29,0.06 0.42,0.16 0.13,0.1 0.2,0.25 0.2,0.45 v 0.45 l -0.051,1.85 v 16.08 l -13.939,-10.93 v 8.39 z"
   stroke-miterlimit="10"
   stroke="#ffffff"
   fill="none" />
			<path
   id="path1297"
   d="m 660,330.97 c 0,0.4 -0.42,0.59 -1.24,0.59 h -2.979 v 17.22 h -6.561 v -17.22 h -1.93 c -0.66,0 -1.11,0.03 -1.36,0.09 -0.319,0.07 -0.56,0.11 -0.699,0.11 -0.44,0 -0.65,-0.18 -0.65,-0.52 0,-0.4 0.42,-0.6 1.26,-0.6 h 11.44 c 0.59,0 1.029,-0.03 1.31,-0.08 0.34,-0.06 0.601,-0.09 0.771,-0.09 0.428,0 0.638,0.17 0.638,0.5 z"
   stroke-miterlimit="10"
   stroke="#ffffff"
   fill="none" />
			<path
   id="path1299"
   d="m 679.58,337.08 -0.521,-0.02 c -0.189,-0.01 -0.43,-0.02 -0.72,-0.02 h -2.87 v 11.68 h -6.54 v -18.14 h 10.181 l 1.27,-0.04 h 0.23 c 0.64,0 0.96,0.19 0.96,0.56 0,0.15 -0.061,0.28 -0.17,0.41 -0.12,0.12 -0.25,0.18 -0.381,0.18 -0.229,0 -0.439,-0.02 -0.64,-0.06 -0.399,-0.09 -0.91,-0.13 -1.54,-0.13 h -3.37 v 4.62 h 2.57 c 0.02,-0.01 0.53,-0.03 1.59,-0.07 0.46,0 0.7,0.17 0.7,0.51 0.001,0.35 -0.249,0.52 -0.749,0.52 z"
   stroke-miterlimit="10"
   stroke="#ffffff"
   fill="none" />
			<path
   id="path1301"
   d="m 529.07,330.56 h 5.33 c 2.49,0 4.31,0.17 5.48,0.52 1.32,0.41 2.35,0.94 3.07,1.58 0.72,0.64 1.29,1.3 1.7,1.99 0.83,1.39 1.25,2.97 1.25,4.74 0,2.79 -1,5.04 -3,6.77 -1.42,1.24 -3.09,2.01 -5.01,2.3 -1.07,0.16 -2.57,0.24 -4.49,0.24 h -4.33 v -18.14 z"
   stroke-miterlimit="10"
   stroke="#ffffff"
   fill="none" />
			<path
   id="path1303"
   d="m 535.61,347.64 c 0.13,0 0.26,0.01 0.37,0.01 h 0.29 c 2.32,0 4.3,-0.72 5.94,-2.17 1.74,-1.52 2.6,-3.54 2.6,-6.06 0,-1.59 -0.38,-3.02 -1.14,-4.3 -1.1,-1.85 -2.84,-2.98 -5.23,-3.37 -0.78,-0.13 -1.72,-0.2 -2.83,-0.22 z"
   stroke-miterlimit="10"
   stroke="#ffffff"
   fill="none" />
			<path
   id="path1305"
   d="m 576.84,346.38 c -0.84,-0.83 -1.52,-1.83 -2.02,-3 -0.5,-1.18 -0.75,-2.46 -0.75,-3.85 0,-1.39 0.24,-2.63 0.71,-3.74 0.48,-1.11 1.13,-2.07 1.97,-2.88 1.8,-1.73 4.05,-2.59 6.76,-2.59 2.69,0 4.9,0.85 6.61,2.55 1.75,1.73 2.62,3.97 2.62,6.72 0,2.74 -0.89,5 -2.68,6.77 -1.12,1.09 -2.5,1.85 -4.13,2.27 -0.81,0.2 -1.75,0.31 -2.83,0.31 -1.07,0 -2.17,-0.22 -3.3,-0.66 -1.13,-0.44 -2.11,-1.08 -2.96,-1.9 z"
   stroke-miterlimit="10"
   stroke="#ffffff"
   fill="none" />
			<path
   id="path1307"
   d="m 583.5,331.26 c -0.47,0 -0.91,0.03 -1.32,0.1 v 16.54 c 0.39,0.07 0.83,0.1 1.32,0.1 2.28,0 4.2,-0.76 5.77,-2.28 1.63,-1.58 2.44,-3.63 2.44,-6.13 0,-2.38 -0.76,-4.37 -2.29,-5.95 -1.55,-1.59 -3.52,-2.38 -5.92,-2.38 z"
   stroke-miterlimit="10"
   stroke="#ffffff"
   fill="none" />
			<path
   id="path1309"
   d="m 620.91,330.56 h 5.33 c 2.49,0 4.319,0.17 5.479,0.52 1.32,0.41 2.351,0.94 3.07,1.58 0.719,0.64 1.29,1.3 1.7,1.99 0.84,1.39 1.25,2.97 1.25,4.74 0,2.79 -1,5.04 -3,6.77 -1.41,1.24 -3.09,2.01 -5.01,2.3 -1.07,0.16 -2.561,0.24 -4.49,0.24 h -4.33 v -18.14 z"
   stroke-miterlimit="10"
   stroke="#ffffff"
   fill="none" />
			<path
   id="path1311"
   d="m 627.45,347.64 c 0.13,0 0.26,0.01 0.37,0.01 h 0.3 c 2.31,0 4.29,-0.72 5.93,-2.17 1.74,-1.52 2.601,-3.54 2.601,-6.06 0,-1.59 -0.381,-3.02 -1.141,-4.3 -1.1,-1.85 -2.84,-2.98 -5.229,-3.37 -0.78,-0.13 -1.721,-0.2 -2.83,-0.22 v 16.11 z"
   stroke-miterlimit="10"
   stroke="#ffffff"
   fill="none" />
			<path
   id="path1313"
   d="m 519.88,347.4 c -1.57,1.02 -3.36,1.54 -5.38,1.54 -1.26,0 -2.45,-0.22 -3.58,-0.66 -1.13,-0.44 -2.11,-1.07 -2.96,-1.89 -1.85,-1.81 -2.77,-4.13 -2.77,-6.98 0,-2.61 0.9,-4.77 2.69,-6.5 1.79,-1.73 4.04,-2.59 6.75,-2.59 2.69,0 4.9,0.85 6.61,2.55 1.75,1.73 2.62,3.97 2.62,6.72 0,1.55 -0.29,2.93 -0.86,4.16 -0.57,1.23 -1.36,2.26 -2.37,3.08 l 1.2,0.95 c 0.58,0.44 0.96,0.68 1.14,0.72 0.18,0.04 0.37,0.07 0.56,0.09 0.38,0.03 0.57,0.18 0.57,0.46 0,0.35 -0.23,0.53 -0.69,0.53 -0.36,0 -0.7,-0.1 -1.03,-0.3 -0.33,-0.2 -0.68,-0.45 -1.06,-0.74 z"
   stroke-miterlimit="10"
   stroke="#ffffff"
   fill="none" />
			<path
   id="path1315"
   d="m 514.61,331.26 c -0.47,0 -0.91,0.03 -1.32,0.1 v 16.54 c 0.4,0.07 0.92,0.1 1.57,0.1 1.47,0 2.87,-0.42 4.22,-1.26 -0.92,-0.66 -1.75,-1 -2.5,-1 -0.25,0 -0.44,-0.04 -0.57,-0.14 -0.13,-0.1 -0.19,-0.22 -0.19,-0.37 0,-0.34 0.23,-0.51 0.69,-0.51 0.9,0 2.01,0.49 3.34,1.49 0.9,-0.74 1.63,-1.66 2.17,-2.78 0.54,-1.12 0.81,-2.33 0.81,-3.64 0,-1.31 -0.2,-2.48 -0.6,-3.5 -0.4,-1.01 -0.97,-1.9 -1.69,-2.65 -1.55,-1.59 -3.52,-2.38 -5.93,-2.38 z"
   stroke-miterlimit="10"
   stroke="#ffffff"
   fill="none" />
			<path
   id="path1317"
   d="m 522.72,354.51 -0.08,1.59 v 7.67 c 0,2.53 -0.73,4.59 -2.18,6.17 -1.49,1.62 -3.46,2.42 -5.92,2.42 -2.64,0 -4.69,-0.82 -6.16,-2.47 -1.36,-1.51 -2.05,-3.45 -2.05,-5.82 v -10.09 h 6.55 v 17.29 c 0.66,0.1 1.39,0.14 2.18,0.14 0.79,0 1.59,-0.15 2.41,-0.47 0.81,-0.32 1.53,-0.81 2.15,-1.49 1.33,-1.45 2,-3.57 2.02,-6.37 v -6.95 c 0,-0.26 -0.02,-0.56 -0.06,-0.91 -0.04,-0.35 -0.05,-0.59 -0.05,-0.72 0,-0.44 0.2,-0.66 0.62,-0.66 0.38,0 0.57,0.22 0.57,0.67 z"
   stroke-miterlimit="10"
   stroke="#ffffff"
   fill="none" />
			<path
   id="path1319"
   d="m 545.68,354.51 -0.08,1.59 v 7.67 c 0,2.53 -0.72,4.59 -2.18,6.17 -1.49,1.62 -3.46,2.42 -5.92,2.42 -2.63,0 -4.69,-0.82 -6.16,-2.47 -1.36,-1.51 -2.05,-3.45 -2.05,-5.82 v -10.09 h 6.55 v 17.29 c 0.66,0.1 1.39,0.14 2.18,0.14 0.79,0 1.59,-0.15 2.41,-0.47 0.81,-0.32 1.53,-0.81 2.15,-1.49 1.33,-1.45 2,-3.57 2.02,-6.37 v -6.95 c 0,-0.26 -0.02,-0.56 -0.06,-0.91 -0.03,-0.35 -0.05,-0.59 -0.05,-0.72 0,-0.44 0.21,-0.66 0.62,-0.66 0.38,0 0.57,0.22 0.57,0.67 z"
   stroke-miterlimit="10"
   stroke="#ffffff"
   fill="none" />
			<path
   id="path1321"
   d="m 565.85,371.09 c 0.44,0 0.65,0.17 0.65,0.51 0,0.15 -0.09,0.29 -0.28,0.41 -0.19,0.12 -0.51,0.18 -0.97,0.18 h -10.86 v -18.14 c 3.36,0 6.73,0 10.1,0 l 1.05,-0.04 c 0.64,0 0.96,0.19 0.96,0.56 0,0.15 -0.05,0.28 -0.16,0.41 -0.1,0.12 -0.22,0.18 -0.36,0.18 -0.22,0 -0.46,-0.02 -0.71,-0.07 -0.36,-0.08 -0.87,-0.12 -1.51,-0.12 h -2.83 v 3.91 h 2.33 c 0.02,0 0.53,-0.02 1.58,-0.06 0.19,0 0.35,0.04 0.48,0.13 0.13,0.09 0.2,0.22 0.2,0.38 0,0.36 -0.24,0.54 -0.72,0.54 l -0.55,-0.01 c -0.28,-0.03 -0.52,-0.04 -0.71,-0.04 h -2.61 v 11.43 h 2.83 c 0.63,0 1.08,-0.02 1.35,-0.07 0.31,-0.06 0.56,-0.09 0.74,-0.09 z"
   stroke-miterlimit="10"
   stroke="#ffffff"
   fill="none" />
			<path
   id="path1323"
   d="m 612.69,370.31 0.04,1.31 c 0,0.22 -0.07,0.39 -0.2,0.51 -0.12,0.12 -0.271,0.18 -0.44,0.18 -0.169,0 -0.3,-0.05 -0.399,-0.16 -0.091,-0.12 -0.141,-0.26 -0.141,-0.43 0,-0.17 0.021,-0.36 0.061,-0.57 0.06,-0.27 0.09,-0.93 0.09,-1.99 v -9.36 h -6.45 v 12.37 h -6.55 v -18.14 h 6.55 v 4.83 c 1.85,0 3.32,0 4.42,0 1.1,0 1.771,0 2.03,-0.01 v -2.23 c 0,-0.75 -0.01,-1.23 -0.04,-1.45 l -0.05,-0.39 c -0.011,-0.12 -0.011,-0.22 -0.011,-0.3 0,-0.4 0.181,-0.59 0.54,-0.59 0.12,0 0.261,0.05 0.391,0.15 0.14,0.1 0.21,0.27 0.21,0.51 l -0.05,1.64 v 2.61 l 0.81,-0.12 c 0.15,0 0.28,0.05 0.38,0.14 0.101,0.09 0.15,0.2 0.15,0.35 0,0.33 -0.261,0.52 -0.79,0.56 -0.101,0.02 -0.19,0.03 -0.28,0.04 -0.09,0 -0.18,0.01 -0.27,0.02 v 10.52 z"
   stroke-miterlimit="10"
   stroke="#ffffff"
   fill="none" />
			<path
   id="path1325"
   d="m 652.79,365.83 1.05,0.08 c 1.51,0 2.79,-0.53 3.84,-1.58 1.051,-1.05 1.58,-2.36 1.58,-3.92 0,-2.05 -0.91,-3.58 -2.71,-4.57 -0.99,-0.54 -2.05,-0.86 -3.18,-0.95 -0.48,-0.04 -0.92,-0.06 -1.33,-0.06 h -0.87 c -0.18,0 -0.34,0 -0.479,0.01 v 11.54 5.67 h -6.54 v -18.14 c 2,0 3.619,0 4.859,0 1.24,0 2.05,0 2.42,0.01 0.38,0.01 0.721,0.02 1.011,0.03 0.3,0.01 0.569,0.03 0.829,0.05 0.37,0.03 0.91,0.11 1.591,0.24 0.689,0.13 1.37,0.37 2.05,0.73 0.67,0.36 1.26,0.8 1.74,1.33 1.06,1.13 1.58,2.47 1.58,4.03 0,1.54 -0.49,2.9 -1.461,4.08 -1,1.2 -2.329,1.98 -4,2.33 0.79,2.46 1.811,3.93 3.04,4.41 0.37,0.15 0.75,0.22 1.131,0.22 l 1.01,-0.24 c 0.31,0 0.47,0.16 0.47,0.48 0,0.46 -0.53,0.68 -1.59,0.68 -0.771,0 -1.47,-0.21 -2.11,-0.64 -1,-0.6 -1.85,-1.76 -2.55,-3.49 l -0.38,-0.91 c -0.06,-0.14 -0.11,-0.23 -0.16,-0.27 -0.04,-0.03 -0.13,-0.05 -0.24,-0.05 -0.12,0 -0.22,0.01 -0.3,0.03 l -0.31,0.01 c -0.34,0 -0.57,-0.06 -0.7,-0.19 -0.12,-0.13 -0.18,-0.26 -0.18,-0.4 -10e-4,-0.37 0.299,-0.55 0.889,-0.55"
   stroke-miterlimit="10"
   stroke="#ffffff"
   fill="none" />
			<path
   id="path1327"
   d="m 683.44,377.99 -0.08,1.59 v 7.66 c 0,2.53 -0.721,4.59 -2.181,6.17 -1.479,1.62 -3.46,2.42 -5.92,2.42 -2.63,0 -4.68,-0.82 -6.149,-2.47 -1.37,-1.51 -2.061,-3.45 -2.061,-5.82 v -10.09 h 6.561 v 17.29 c 0.649,0.1 1.38,0.15 2.17,0.15 0.79,0 1.59,-0.16 2.41,-0.48 0.819,-0.32 1.529,-0.81 2.149,-1.49 1.33,-1.45 2.01,-3.57 2.021,-6.37 v -6.95 c 0,-0.26 -0.021,-0.56 -0.051,-0.91 -0.04,-0.35 -0.06,-0.59 -0.06,-0.72 0,-0.44 0.21,-0.66 0.63,-0.66 0.371,0 0.561,0.22 0.561,0.68 z"
   stroke-miterlimit="10"
   stroke="#ffffff"
   fill="none" />
			<path
   id="path1329"
   d="m 637.52,377.99 -0.079,1.59 v 7.66 c 0,2.53 -0.721,4.59 -2.181,6.17 -1.479,1.62 -3.46,2.42 -5.92,2.42 -2.63,0 -4.68,-0.82 -6.149,-2.47 -1.37,-1.51 -2.061,-3.45 -2.061,-5.82 v -10.09 h 6.561 v 17.29 c 0.649,0.1 1.38,0.15 2.17,0.15 0.79,0 1.59,-0.16 2.409,-0.48 0.82,-0.32 1.53,-0.81 2.15,-1.49 1.33,-1.45 2.01,-3.57 2.021,-6.37 v -6.95 c 0,-0.26 -0.021,-0.56 -0.051,-0.91 -0.04,-0.35 -0.06,-0.59 -0.06,-0.72 0,-0.44 0.21,-0.66 0.63,-0.66 0.37,0 0.56,0.22 0.56,0.68 z"
   stroke-miterlimit="10"
   stroke="#ffffff"
   fill="none" />
			<rect
   id="rect1331"
   height="18.139999"
   width="6.54"
   stroke-miterlimit="10"
   stroke="#ffffff"
   fill="none"
   y="377.5"
   x="603.09998" />
			<path
   id="path1333"
   d="m 571.79,396.01 c -0.16,-0.01 -0.29,-0.09 -0.37,-0.21 -0.09,-0.13 -0.12,-0.27 -0.1,-0.43 0.04,-0.26 0.12,-0.51 0.24,-0.73 0.12,-0.22 0.21,-0.39 0.26,-0.5 0.06,-0.11 0.12,-0.23 0.18,-0.37 l 0.48,-1.13 5.27,-15.78 5.67,10.95 1.12,-2.24 4.38,-8.71 6.58,18.96 h -6.89 l -3.18,-9.8 -4.92,10.26 -5.18,-9.23 -1.79,5.6 c -0.29,0.63 -0.49,1.16 -0.61,1.59 -0.12,0.44 -0.22,0.78 -0.29,1.02 -0.17,0.54 -0.46,0.79 -0.85,0.75"
   stroke-miterlimit="10"
   stroke="#ffffff"
   fill="none" />
			<rect
   id="rect1335"
   height="18.139999"
   width="6.5300002"
   stroke-miterlimit="10"
   stroke="#ffffff"
   fill="none"
   y="377.5"
   x="511.26001" />
			<path
   id="path1337"
   d="m 508.11,417.34 0.04,1.28 c 0,0.22 -0.06,0.39 -0.18,0.51 -0.12,0.12 -0.27,0.18 -0.43,0.18 -0.17,0 -0.31,-0.05 -0.42,-0.17 -0.11,-0.11 -0.17,-0.23 -0.17,-0.36 0,-0.13 0.01,-0.26 0.04,-0.37 0.02,-0.12 0.04,-0.25 0.05,-0.39 0.05,-0.25 0.07,-0.87 0.07,-1.86 v -15.95 l 13.93,11.05 v -7.64 c 0,-0.58 -0.01,-1 -0.05,-1.25 -0.04,-0.4 -0.06,-0.68 -0.06,-0.84 0,-0.43 0.18,-0.64 0.55,-0.64 0.15,0 0.29,0.05 0.42,0.15 0.13,0.1 0.2,0.25 0.2,0.45 v 0.45 l -0.06,1.86 v 16.07 l -13.93,-10.93 v 8.4 z"
   stroke-miterlimit="10"
   stroke="#ffffff"
   fill="none" />
			<path
   id="path1339"
   d="m 532.13,418.18 c -0.3,-0.17 -0.56,-0.35 -0.77,-0.54 -0.22,-0.18 -0.33,-0.38 -0.33,-0.6 0,-0.41 0.17,-0.61 0.53,-0.61 0.23,0 0.48,0.12 0.76,0.38 0.29,0.26 0.6,0.48 0.95,0.67 0.35,0.2 0.73,0.36 1.14,0.5 0.85,0.28 1.63,0.42 2.35,0.42 0.72,0 1.27,-0.05 1.66,-0.14 0.39,-0.09 0.72,-0.22 0.98,-0.39 0.57,-0.35 0.85,-0.79 0.85,-1.34 0,-0.51 -0.25,-1.01 -0.73,-1.53 -0.41,-0.43 -0.99,-0.95 -1.75,-1.56 l -2.19,-1.72 c -2.2,-1.69 -3.49,-3.24 -3.88,-4.64 -0.14,-0.49 -0.21,-1.03 -0.21,-1.63 0,-0.6 0.14,-1.19 0.41,-1.77 0.26,-0.58 0.66,-1.09 1.19,-1.52 1.14,-0.95 2.69,-1.43 4.65,-1.43 1,0 1.89,0.15 2.69,0.44 0.79,0.3 1.34,0.56 1.63,0.79 0.29,0.23 0.43,0.44 0.43,0.63 0,0.39 -0.16,0.59 -0.49,0.59 -0.18,0 -0.38,-0.09 -0.6,-0.28 -0.21,-0.19 -0.45,-0.35 -0.71,-0.49 -0.26,-0.15 -0.56,-0.27 -0.89,-0.38 -0.72,-0.24 -1.42,-0.36 -2.12,-0.36 -1.27,0 -1.91,0.42 -1.91,1.25 0,0.35 0.12,0.68 0.35,0.98 0.41,0.52 1.21,1.27 2.4,2.24 1.2,0.97 2.15,1.81 2.88,2.54 0.72,0.73 1.27,1.38 1.64,1.96 0.6,0.92 0.9,1.87 0.9,2.86 0,0.98 -0.17,1.82 -0.52,2.51 -0.34,0.69 -0.83,1.28 -1.45,1.78 -1.32,1.04 -2.95,1.56 -4.9,1.56 -1.95,0 -3.6,-0.39 -4.94,-1.17 z"
   stroke-miterlimit="10"
   stroke="#ffffff"
   fill="none" />
			<path
   id="path1341"
   d="m 565.85,418.03 c 0.44,0 0.65,0.17 0.65,0.51 0,0.16 -0.09,0.29 -0.28,0.41 -0.19,0.12 -0.51,0.18 -0.97,0.18 h -10.86 v -18.14 c 3.36,0 6.73,0 10.1,0 l 1.05,-0.04 c 0.64,0 0.96,0.19 0.96,0.56 0,0.15 -0.05,0.28 -0.16,0.41 -0.1,0.12 -0.22,0.18 -0.36,0.18 -0.22,0 -0.46,-0.02 -0.71,-0.07 -0.36,-0.08 -0.87,-0.12 -1.51,-0.12 h -2.83 v 3.91 h 2.33 c 0.02,0 0.53,-0.02 1.58,-0.06 0.19,0 0.35,0.04 0.48,0.13 0.13,0.09 0.2,0.22 0.2,0.38 0,0.36 -0.24,0.54 -0.72,0.54 l -0.55,-0.01 c -0.28,-0.03 -0.52,-0.04 -0.71,-0.04 h -2.61 v 11.44 h 2.83 c 0.63,0 1.08,-0.03 1.35,-0.08 0.31,-0.06 0.56,-0.09 0.74,-0.09 z"
   stroke-miterlimit="10"
   stroke="#ffffff"
   fill="none" />
			<path
   id="path1343"
   d="m 591.12,401.39 c 0,0.39 -0.42,0.59 -1.25,0.59 h -2.97 v 17.22 h -6.57 v -17.22 h -1.92 c -0.66,0 -1.11,0.03 -1.36,0.09 -0.32,0.06 -0.56,0.1 -0.7,0.1 -0.44,0 -0.66,-0.17 -0.66,-0.51 0,-0.41 0.43,-0.61 1.27,-0.61 h 11.44 c 0.59,0 1.03,-0.02 1.31,-0.07 0.34,-0.06 0.6,-0.09 0.77,-0.09 0.42,0 0.64,0.16 0.64,0.5 z"
   stroke-miterlimit="10"
   stroke="#ffffff"
   fill="none" />
			<rect
   id="rect1345"
   height="18.139999"
   width="6.54"
   stroke-miterlimit="10"
   stroke="#ffffff"
   fill="none"
   y="400.97"
   x="603.09998" />
			<path
   id="path1347"
   d="m 622.91,417.34 0.04,1.28 c 0,0.22 -0.061,0.39 -0.181,0.51 -0.119,0.12 -0.26,0.18 -0.43,0.18 -0.17,0 -0.31,-0.05 -0.42,-0.17 -0.11,-0.11 -0.16,-0.23 -0.16,-0.36 0,-0.13 0.01,-0.26 0.03,-0.37 0.02,-0.12 0.04,-0.25 0.06,-0.39 0.04,-0.25 0.061,-0.87 0.061,-1.86 v -15.95 l 13.939,11.05 v -7.64 c 0,-0.58 -0.02,-1 -0.05,-1.25 -0.05,-0.4 -0.069,-0.68 -0.069,-0.84 0,-0.43 0.189,-0.64 0.55,-0.64 0.149,0 0.29,0.05 0.42,0.15 0.13,0.1 0.2,0.25 0.2,0.45 v 0.45 l -0.051,1.86 v 16.07 L 622.91,408.94 Z"
   stroke-miterlimit="10"
   stroke="#ffffff"
   fill="none" />
			<rect
   id="rect1349"
   height="18.139999"
   width="6.54"
   stroke-miterlimit="10"
   stroke="#ffffff"
   fill="none"
   y="400.97"
   x="649.02002" />
			<path
   id="path1351"
   d="m 682.96,424.86 c 0,0.391 -0.41,0.59 -1.24,0.59 h -2.979 v 17.221 H 672.18 V 425.45 h -1.93 c -0.65,0 -1.11,0.03 -1.36,0.091 -0.319,0.06 -0.56,0.1 -0.699,0.1 -0.44,0 -0.65,-0.17 -0.65,-0.51 0,-0.41 0.42,-0.61 1.26,-0.61 h 11.44 c 0.59,0 1.029,-0.02 1.31,-0.07 0.34,-0.06 0.601,-0.09 0.771,-0.09 0.428,-10e-4 0.638,0.159 0.638,0.499 z"
   stroke-miterlimit="10"
   stroke="#ffffff"
   fill="none" />
			<path
   id="path1353"
   d="m 646.93,441.65 c -0.3,-0.17 -0.55,-0.35 -0.77,-0.54 -0.22,-0.18 -0.33,-0.38 -0.33,-0.6 0,-0.41 0.18,-0.61 0.53,-0.61 0.229,0 0.479,0.12 0.77,0.38 0.28,0.261 0.59,0.48 0.95,0.67 0.35,0.2 0.729,0.36 1.14,0.5 0.84,0.28 1.62,0.421 2.34,0.421 0.721,0 1.271,-0.051 1.66,-0.141 0.391,-0.09 0.721,-0.22 0.98,-0.38 0.569,-0.35 0.85,-0.8 0.85,-1.35 0,-0.511 -0.24,-1.011 -0.729,-1.53 -0.41,-0.43 -0.99,-0.95 -1.74,-1.561 l -2.2,-1.72 c -2.189,-1.689 -3.49,-3.24 -3.88,-4.64 -0.14,-0.49 -0.21,-1.03 -0.21,-1.63 0,-0.601 0.14,-1.19 0.41,-1.771 0.27,-0.58 0.67,-1.09 1.2,-1.52 1.13,-0.95 2.68,-1.431 4.64,-1.431 1,0 1.89,0.15 2.69,0.44 0.789,0.3 1.34,0.56 1.63,0.79 0.29,0.229 0.43,0.44 0.43,0.63 0,0.39 -0.16,0.59 -0.48,0.59 -0.189,0 -0.39,-0.09 -0.609,-0.279 -0.21,-0.19 -0.45,-0.351 -0.71,-0.49 -0.26,-0.15 -0.561,-0.271 -0.891,-0.38 -0.72,-0.24 -1.42,-0.36 -2.109,-0.36 -1.28,0 -1.91,0.42 -1.91,1.25 0,0.36 0.11,0.68 0.34,0.98 0.41,0.52 1.21,1.27 2.41,2.239 1.189,0.971 2.15,1.82 2.87,2.54 0.72,0.73 1.27,1.38 1.649,1.96 0.591,0.92 0.891,1.87 0.891,2.86 0,0.979 -0.17,1.82 -0.521,2.51 -0.34,0.69 -0.83,1.28 -1.45,1.78 -1.319,1.04 -2.949,1.56 -4.899,1.56 -1.95,0 -3.592,-0.387 -4.942,-1.167 z"
   stroke-miterlimit="10"
   stroke="#ffffff"
   fill="none" />
			<path
   id="path1355"
   d="m 634.73,441.5 c 0.439,0 0.649,0.17 0.649,0.51 0,0.16 -0.09,0.29 -0.28,0.41 -0.18,0.12 -0.51,0.18 -0.97,0.18 h -10.86 v -18.14 c 3.37,0 6.73,0 10.101,0 l 1.05,-0.04 c 0.64,0 0.96,0.189 0.96,0.56 0,0.15 -0.05,0.29 -0.16,0.41 -0.1,0.12 -0.22,0.18 -0.359,0.18 -0.221,0 -0.46,-0.02 -0.71,-0.069 -0.36,-0.08 -0.87,-0.12 -1.511,-0.12 h -2.83 v 3.91 h 2.33 c 0.021,0 0.53,-0.021 1.58,-0.061 0.19,0 0.351,0.04 0.48,0.13 0.129,0.09 0.2,0.221 0.2,0.38 0,0.36 -0.24,0.54 -0.721,0.54 l -0.55,-0.01 c -0.28,-0.03 -0.52,-0.04 -0.71,-0.04 h -2.61 v 11.44 h 2.83 c 0.63,0 1.08,-0.03 1.351,-0.08 0.31,-0.06 0.56,-0.09 0.74,-0.09 z"
   stroke-miterlimit="10"
   stroke="#ffffff"
   fill="none" />
			<path
   id="path1357"
   d="m 606.87,436.24 1.05,0.08 c 1.51,0 2.79,-0.529 3.84,-1.58 1.05,-1.05 1.57,-2.359 1.57,-3.92 0,-2.05 -0.9,-3.569 -2.7,-4.569 -0.99,-0.54 -2.05,-0.86 -3.18,-0.94 -0.48,-0.05 -0.92,-0.07 -1.33,-0.07 h -0.88 c -0.181,0 -0.33,0.011 -0.471,0.011 v 11.54 5.67 H 598.23 V 424.32 c 2,0 3.619,0 4.859,0 1.24,0 2.05,0 2.42,0.011 0.38,0.01 0.721,0.02 1.01,0.029 0.301,0.021 0.57,0.03 0.83,0.05 0.37,0.03 0.91,0.11 1.591,0.24 0.689,0.13 1.369,0.37 2.05,0.73 0.67,0.359 1.26,0.81 1.74,1.34 1.05,1.12 1.579,2.47 1.579,4.02 0,1.54 -0.489,2.9 -1.46,4.08 -1,1.2 -2.34,1.98 -4,2.33 0.79,2.46 1.811,3.931 3.04,4.41 0.37,0.15 0.75,0.22 1.12,0.22 l 1.021,-0.239 c 0.31,0 0.47,0.159 0.47,0.479 0,0.46 -0.53,0.68 -1.59,0.68 -0.771,0 -1.47,-0.21 -2.11,-0.64 -1,-0.59 -1.85,-1.76 -2.55,-3.479 l -0.38,-0.91 c -0.061,-0.15 -0.11,-0.24 -0.16,-0.271 -0.04,-0.04 -0.13,-0.05 -0.24,-0.05 -0.12,0 -0.22,0 -0.3,0.021 l -0.31,0.01 c -0.341,0 -0.57,-0.061 -0.7,-0.19 -0.12,-0.13 -0.18,-0.26 -0.18,-0.399 0,-0.362 0.29,-0.552 0.89,-0.552"
   stroke-miterlimit="10"
   stroke="#ffffff"
   fill="none" />
			<path
   id="path1359"
   d="m 591.6,424.93 -0.08,1.59 v 7.66 c 0,2.53 -0.72,4.59 -2.18,6.17 -1.48,1.62 -3.46,2.42 -5.92,2.42 -2.63,0 -4.69,-0.82 -6.16,-2.47 -1.36,-1.51 -2.05,-3.45 -2.05,-5.82 v -10.09 h 6.55 v 17.29 c 0.66,0.1 1.39,0.15 2.18,0.15 0.79,0 1.59,-0.16 2.41,-0.48 0.82,-0.31 1.53,-0.81 2.15,-1.49 1.33,-1.45 2,-3.569 2.02,-6.37 v -6.949 c 0,-0.25 -0.02,-0.561 -0.06,-0.91 -0.03,-0.351 -0.05,-0.59 -0.05,-0.721 0,-0.439 0.21,-0.659 0.63,-0.659 0.37,-10e-4 0.56,0.219 0.56,0.679 z"
   stroke-miterlimit="10"
   stroke="#ffffff"
   fill="none" />
			<path
   id="path1361"
   d="m 565.85,441.5 c 0.44,0 0.65,0.17 0.65,0.51 0,0.16 -0.09,0.29 -0.28,0.41 -0.19,0.12 -0.51,0.18 -0.97,0.18 h -10.86 v -18.14 c 3.36,0 6.73,0 10.1,0 l 1.05,-0.04 c 0.64,0 0.96,0.189 0.96,0.56 0,0.15 -0.05,0.29 -0.16,0.41 -0.1,0.12 -0.22,0.18 -0.36,0.18 -0.22,0 -0.46,-0.02 -0.71,-0.069 -0.36,-0.08 -0.87,-0.12 -1.51,-0.12 h -2.83 v 3.91 h 2.33 c 0.02,0 0.53,-0.021 1.58,-0.061 0.19,0 0.35,0.04 0.48,0.13 0.13,0.09 0.2,0.221 0.2,0.38 0,0.36 -0.24,0.54 -0.72,0.54 l -0.55,-0.01 c -0.28,-0.03 -0.52,-0.04 -0.71,-0.04 h -2.61 v 11.44 h 2.83 c 0.63,0 1.08,-0.03 1.35,-0.08 0.31,-0.06 0.56,-0.09 0.74,-0.09 z"
   stroke-miterlimit="10"
   stroke="#ffffff"
   fill="none" />
			<path
   id="path1363"
   d="m 543.81,440.72 0.03,1.31 c 0,0.221 -0.06,0.391 -0.19,0.511 -0.13,0.119 -0.27,0.18 -0.44,0.18 -0.17,0 -0.3,-0.05 -0.4,-0.16 -0.1,-0.11 -0.14,-0.25 -0.14,-0.43 0,-0.17 0.02,-0.36 0.06,-0.57 0.06,-0.27 0.09,-0.93 0.09,-1.99 v -9.359 h -6.45 v 12.37 h -6.55 V 424.44 h 6.55 v 4.83 c 1.85,0 3.32,0 4.42,0 1.1,0 1.77,0 2.03,-0.01 v -2.23 c 0,-0.739 -0.01,-1.229 -0.04,-1.449 l -0.05,-0.381 c -0.01,-0.119 -0.01,-0.229 -0.01,-0.31 0,-0.39 0.18,-0.59 0.53,-0.59 0.13,0 0.27,0.05 0.4,0.149 0.14,0.11 0.21,0.28 0.21,0.521 l -0.05,1.64 v 2.601 l 0.8,-0.12 c 0.16,0 0.29,0.05 0.39,0.14 0.1,0.09 0.15,0.21 0.15,0.351 0,0.329 -0.26,0.52 -0.79,0.569 -0.1,0.01 -0.19,0.021 -0.28,0.03 -0.09,0 -0.18,0.01 -0.27,0.02 v 10.519 z"
   stroke-miterlimit="10"
   stroke="#ffffff"
   fill="none" />
			<path
   id="path1365"
   d="m 522.19,439.541 c 0.35,0 0.52,0.189 0.52,0.59 0,0.319 -0.25,0.649 -0.74,0.97 -0.93,0.61 -1.7,1.01 -2.34,1.19 -1.18,0.35 -2.43,0.529 -3.74,0.529 -1.31,0 -2.57,-0.229 -3.78,-0.699 -1.21,-0.461 -2.24,-1.12 -3.09,-1.95 -1.79,-1.771 -2.68,-4.04 -2.68,-6.83 0,-1.34 0.25,-2.57 0.75,-3.69 0.51,-1.13 1.21,-2.09 2.09,-2.899 1.88,-1.7 4.25,-2.551 7.09,-2.551 1.6,0 3.01,0.28 4.22,0.82 1.29,0.58 1.94,1.061 1.94,1.46 0,0.17 -0.05,0.311 -0.16,0.43 -0.11,0.12 -0.23,0.181 -0.37,0.181 -0.27,0 -0.52,-0.12 -0.74,-0.37 -0.22,-0.24 -0.52,-0.46 -0.9,-0.66 -0.38,-0.2 -0.8,-0.37 -1.25,-0.51 -0.93,-0.28 -1.77,-0.42 -2.52,-0.42 -0.76,0 -1.39,0.05 -1.88,0.149 v 16.44 c 0.6,0.1 1.13,0.15 1.59,0.15 0.46,0 0.93,-0.03 1.41,-0.091 0.48,-0.06 0.95,-0.159 1.41,-0.29 1.03,-0.31 1.81,-0.76 2.33,-1.359 0.19,-0.23 0.34,-0.38 0.45,-0.46 0.11,-0.09 0.24,-0.13 0.39,-0.13 z"
   stroke-miterlimit="10"
   stroke="#ffffff"
   fill="none" />
			<rect
   id="rect1367"
   height="18.141001"
   width="6.5300002"
   stroke-miterlimit="10"
   stroke="#ffffff"
   fill="none"
   y="447.91"
   x="534.21997" />
			<path
   id="path1369"
   d="m 565.6,464.89 c 0.45,0 0.68,0.19 0.68,0.57 0,0.16 -0.09,0.29 -0.28,0.41 -0.18,0.119 -0.51,0.18 -0.98,0.18 h -10.41 v -18.14 h 6.54 v 17.301 h 2.4 c 0.54,0 1,-0.061 1.39,-0.16 0.39,-0.111 0.61,-0.161 0.66,-0.161 z"
   stroke-miterlimit="10"
   stroke="#ffffff"
   fill="none" />
			<path
   id="path1371"
   d="m 583.65,460.73 1.14,0.05 c 1.66,0 3.03,-0.54 4.1,-1.64 1.1,-1.1 1.67,-2.53 1.72,-4.28 0.1,-2.7 -1.2,-4.529 -3.9,-5.47 -1,-0.36 -2.32,-0.54 -3.93,-0.54 h -1.08 v 12.41 4.79 h -6.54 v -18.14 h 4.91 c 2.65,0 4.25,0.04 4.8,0.12 0.54,0.07 1.12,0.17 1.71,0.29 0.59,0.12 1.23,0.38 1.92,0.78 0.69,0.4 1.27,0.88 1.75,1.44 0.97,1.13 1.43,2.449 1.4,3.97 -0.05,1.939 -0.62,3.56 -1.71,4.85 -1.1,1.3 -2.62,2.101 -4.56,2.41 -0.56,0.08 -1.01,0.12 -1.33,0.12 -0.77,0 -1.16,-0.21 -1.16,-0.63 0,-0.16 0.07,-0.28 0.21,-0.38 0.13,-0.1 0.32,-0.15 0.55,-0.15"
   stroke-miterlimit="10"
   stroke="#ffffff"
   fill="none" />
			<path
   id="path1373"
   d="m 599.38,466.19 c -0.35,0 -0.52,-0.16 -0.52,-0.5 0,-0.25 0.189,-0.54 0.56,-0.87 0.35,-0.31 0.62,-0.62 0.84,-0.92 0.03,-0.05 1.181,-1.729 3.55,-5.18 l -5.21,-10.811 h 6.801 l 3.08,6.41 2.68,-3.85 c 0.49,-0.73 0.859,-1.42 1.1,-2.061 0.19,-0.43 0.44,-0.64 0.771,-0.64 0.319,0 0.479,0.18 0.479,0.55 0,0.21 -0.22,0.641 -0.66,1.311 l -3.851,5.781 5.13,10.641 h -6.77 l -3.011,-6.23 -3.29,4.721 c -0.64,0.909 -1.1,1.43 -1.369,1.58 -0.1,0.048 -0.2,0.068 -0.31,0.068 z"
   stroke-miterlimit="10"
   stroke="#ffffff"
   fill="none" />
			<path
   id="path1375"
   d="m 634.73,464.97 c 0.439,0 0.649,0.17 0.649,0.51 0,0.16 -0.09,0.29 -0.28,0.41 -0.18,0.12 -0.51,0.18 -0.97,0.18 h -10.86 v -18.14 c 3.37,0 6.73,0 10.101,0 l 1.05,-0.04 c 0.64,0 0.96,0.19 0.96,0.57 0,0.14 -0.05,0.279 -0.16,0.399 -0.1,0.12 -0.22,0.19 -0.359,0.19 -0.221,0 -0.46,-0.03 -0.71,-0.08 -0.36,-0.08 -0.87,-0.12 -1.511,-0.12 h -2.83 v 3.91 h 2.33 c 0.021,0 0.53,-0.021 1.58,-0.061 0.19,0 0.351,0.04 0.48,0.131 0.13,0.09 0.2,0.22 0.2,0.38 0,0.359 -0.24,0.54 -0.721,0.54 l -0.55,-0.011 c -0.28,-0.029 -0.52,-0.04 -0.71,-0.04 h -2.61 v 11.44 h 2.83 c 0.63,0 1.08,-0.03 1.351,-0.08 0.31,-0.058 0.56,-0.088 0.74,-0.088 z"
   stroke-miterlimit="10"
   stroke="#ffffff"
   fill="none" />
			<path
   id="path1377"
   d="m 657.69,464.97 c 0.439,0 0.659,0.17 0.659,0.51 0,0.16 -0.1,0.29 -0.29,0.41 -0.18,0.12 -0.51,0.18 -0.97,0.18 H 646.23 v -18.14 c 3.369,0 6.729,0 10.1,0 l 1.05,-0.04 c 0.65,0 0.97,0.19 0.97,0.57 0,0.14 -0.06,0.279 -0.159,0.399 -0.11,0.12 -0.23,0.19 -0.37,0.19 -0.221,0 -0.46,-0.03 -0.71,-0.08 -0.36,-0.08 -0.87,-0.12 -1.511,-0.12 h -2.83 v 3.91 h 2.33 c 0.021,0 0.53,-0.021 1.58,-0.061 0.19,0 0.351,0.04 0.48,0.131 0.13,0.09 0.2,0.22 0.2,0.38 0,0.359 -0.24,0.54 -0.721,0.54 l -0.55,-0.011 c -0.28,-0.029 -0.52,-0.04 -0.71,-0.04 h -2.61 v 11.44 h 2.83 c 0.631,0 1.08,-0.03 1.351,-0.08 0.31,-0.058 0.56,-0.088 0.74,-0.088 z"
   stroke-miterlimit="10"
   stroke="#ffffff"
   fill="none" />
			<path
   id="path1379"
   d="m 675.75,483.18 1.06,0.08 c 1.5,0 2.78,-0.53 3.83,-1.58 1.051,-1.05 1.58,-2.36 1.58,-3.92 0,-2.05 -0.91,-3.57 -2.71,-4.561 -0.99,-0.55 -2.05,-0.869 -3.18,-0.949 -0.48,-0.051 -0.92,-0.07 -1.33,-0.07 h -0.87 c -0.18,0 -0.34,0.01 -0.479,0.02 v 11.53 5.67 h -6.54 v -18.14 c 2,0 3.62,0 4.859,0 1.24,0 2.05,0 2.42,0.01 0.38,0.01 0.721,0.021 1.011,0.03 0.3,0.02 0.569,0.03 0.83,0.05 0.369,0.03 0.909,0.11 1.6,0.24 0.68,0.13 1.36,0.37 2.04,0.729 0.67,0.36 1.26,0.811 1.74,1.34 1.06,1.131 1.58,2.471 1.58,4.021 0,1.54 -0.49,2.9 -1.46,4.08 -1,1.21 -2.33,1.979 -4,2.33 0.789,2.47 1.81,3.939 3.039,4.41 0.37,0.149 0.75,0.22 1.131,0.22 l 1.01,-0.24 c 0.31,0 0.47,0.16 0.47,0.49 0,0.45 -0.53,0.68 -1.59,0.68 -0.771,0 -1.47,-0.22 -2.11,-0.64 -1,-0.601 -1.85,-1.771 -2.55,-3.49 l -0.38,-0.91 c -0.06,-0.149 -0.11,-0.239 -0.16,-0.27 -0.04,-0.04 -0.12,-0.05 -0.24,-0.05 -0.109,0 -0.22,0.01 -0.3,0.02 l -0.31,0.01 c -0.34,0 -0.57,-0.06 -0.7,-0.189 -0.12,-0.13 -0.18,-0.26 -0.18,-0.4 -10e-4,-0.36 0.299,-0.551 0.889,-0.551"
   stroke-miterlimit="10"
   stroke="#ffffff"
   fill="none" />
			<rect
   id="rect1381"
   height="18.139999"
   width="6.54"
   stroke-miterlimit="10"
   stroke="#ffffff"
   fill="none"
   y="471.38"
   x="649.02002" />
			<path
   id="path1383"
   d="m 635.59,488.42 c 0.45,0 0.67,0.17 0.67,0.51 0,0.16 -0.1,0.29 -0.29,0.41 -0.18,0.12 -0.52,0.18 -1,0.18 H 622.4 l 6.689,-17.22 h -3.27 c -0.65,0 -1.11,0.03 -1.37,0.09 -0.34,0.07 -0.57,0.11 -0.71,0.11 -0.44,0 -0.66,-0.17 -0.66,-0.521 0,-0.399 0.42,-0.6 1.25,-0.6 h 11.45 l -6.521,17.21 h 4.271 c 0.64,0 1.09,-0.03 1.34,-0.08 0.301,-0.059 0.541,-0.089 0.721,-0.089 z"
   stroke-miterlimit="10"
   stroke="#ffffff"
   fill="none" />
			<path
   id="path1385"
   d="m 614.08,471.8 c 0,0.39 -0.42,0.59 -1.25,0.59 h -2.97 v 17.22 h -6.56 v -17.22 h -1.93 c -0.66,0 -1.11,0.03 -1.36,0.09 -0.319,0.07 -0.56,0.101 -0.7,0.101 -0.439,0 -0.659,-0.171 -0.659,-0.511 0,-0.399 0.43,-0.609 1.27,-0.609 h 11.44 c 0.59,0 1.029,-0.021 1.31,-0.07 0.34,-0.06 0.6,-0.09 0.771,-0.09 0.428,-10e-4 0.638,0.159 0.638,0.499 z"
   stroke-miterlimit="10"
   stroke="#ffffff"
   fill="none" />
			<path
   id="path1387"
   d="m 591.04,488.581 0.03,-0.881 v -2.029 c -1.21,2.01 -2.99,3.29 -5.34,3.84 -0.74,0.17 -1.61,0.25 -2.59,0.25 -0.99,0 -2.01,-0.2 -3.07,-0.61 -1.05,-0.41 -1.98,-1.01 -2.77,-1.79 -1.75,-1.689 -2.62,-3.92 -2.62,-6.68 0,-2.64 0.92,-4.87 2.77,-6.7 1.92,-1.89 4.34,-2.84 7.24,-2.84 1.48,0 2.8,0.28 3.99,0.82 0.73,0.33 1.24,0.63 1.54,0.91 0.3,0.279 0.45,0.5 0.45,0.67 0,0.159 -0.05,0.31 -0.15,0.42 -0.11,0.12 -0.25,0.18 -0.43,0.18 -0.19,0 -0.39,-0.09 -0.61,-0.29 -0.66,-0.58 -1.24,-0.96 -1.74,-1.14 -0.5,-0.181 -0.9,-0.311 -1.2,-0.391 -0.3,-0.069 -0.57,-0.13 -0.81,-0.16 -0.36,-0.05 -0.8,-0.079 -1.3,-0.079 -0.51,0 -0.97,0.04 -1.4,0.13 v 16.59 c 0.09,0.01 0.19,0.01 0.28,0.01 h 0.26 c 2.53,0 4.59,-0.96 6.16,-2.88 0.54,-0.66 0.99,-1.44 1.34,-2.34 v -1.23 c 0,-0.01 -0.02,-0.38 -0.07,-1.149 0,-0.45 0.18,-0.681 0.54,-0.681 0.19,0 0.34,0.061 0.44,0.19 0.1,0.12 0.15,0.27 0.15,0.45 l -0.08,1.06 V 487 l 0.08,1.989 c 0,0.21 -0.06,0.37 -0.17,0.49 -0.12,0.12 -0.25,0.18 -0.41,0.18 -0.37,0 -0.56,-0.199 -0.56,-0.59 0,-0.099 0.02,-0.269 0.05,-0.488 z"
   stroke-miterlimit="10"
   stroke="#ffffff"
   fill="none" />
			<path
   id="path1389"
   d="m 554.03,487.75 0.04,1.279 c 0,0.221 -0.06,0.391 -0.18,0.511 -0.12,0.119 -0.27,0.18 -0.43,0.18 -0.17,0 -0.31,-0.05 -0.42,-0.16 -0.11,-0.12 -0.17,-0.24 -0.17,-0.37 0,-0.13 0.01,-0.26 0.04,-0.37 0.02,-0.12 0.04,-0.25 0.05,-0.39 0.05,-0.25 0.07,-0.87 0.07,-1.86 v -15.949 l 13.94,11.05 v -7.641 c 0,-0.58 -0.02,-1 -0.06,-1.25 -0.04,-0.399 -0.06,-0.68 -0.06,-0.84 0,-0.43 0.18,-0.64 0.55,-0.64 0.15,0 0.29,0.05 0.42,0.149 0.13,0.101 0.2,0.25 0.2,0.45 v 0.45 l -0.05,1.86 v 16.08 l -13.94,-10.94 v 8.401 z"
   stroke-miterlimit="10"
   stroke="#ffffff"
   fill="none" />
			<rect
   id="rect1391"
   height="18.139999"
   width="6.5300002"
   stroke-miterlimit="10"
   stroke="#ffffff"
   fill="none"
   y="471.38"
   x="534.21997" />
			<path
   id="path1393"
   d="m 521.92,470.96 c 0.35,0 0.53,0.18 0.53,0.55 0,0.189 -0.06,0.399 -0.17,0.649 -0.12,0.24 -0.21,0.44 -0.28,0.591 l -6.96,17.199 -8.44,-18.85 h 7 l 4.08,9.59 2.86,-7.149 c 0.31,-0.771 0.51,-1.33 0.6,-1.67 0.09,-0.341 0.2,-0.58 0.31,-0.711 0.11,-0.139 0.27,-0.199 0.47,-0.199 z"
   stroke-miterlimit="10"
   stroke="#ffffff"
   fill="none" />
			<path
   id="path1395"
   d="m 509.17,512.06 c -0.3,-0.17 -0.56,-0.35 -0.77,-0.53 -0.22,-0.189 -0.33,-0.39 -0.33,-0.609 0,-0.41 0.17,-0.61 0.52,-0.61 0.24,0 0.49,0.13 0.77,0.38 0.29,0.26 0.6,0.48 0.95,0.681 0.35,0.189 0.73,0.35 1.14,0.489 0.85,0.28 1.63,0.42 2.35,0.42 0.72,0 1.27,-0.04 1.66,-0.14 0.39,-0.09 0.72,-0.22 0.98,-0.38 0.57,-0.351 0.85,-0.8 0.85,-1.351 0,-0.5 -0.25,-1.01 -0.73,-1.52 -0.41,-0.44 -0.99,-0.96 -1.75,-1.57 l -2.19,-1.72 c -2.2,-1.69 -3.49,-3.24 -3.88,-4.64 -0.14,-0.49 -0.21,-1.03 -0.21,-1.63 0,-0.601 0.14,-1.19 0.4,-1.771 0.27,-0.58 0.67,-1.09 1.2,-1.52 1.14,-0.95 2.69,-1.431 4.64,-1.431 1,0 1.9,0.15 2.7,0.45 0.79,0.29 1.34,0.55 1.63,0.79 0.29,0.23 0.43,0.44 0.43,0.62 0,0.4 -0.16,0.59 -0.49,0.59 -0.18,0 -0.38,-0.09 -0.6,-0.28 -0.21,-0.189 -0.45,-0.35 -0.71,-0.489 -0.26,-0.141 -0.56,-0.271 -0.89,-0.381 -0.72,-0.239 -1.42,-0.359 -2.12,-0.359 -1.27,0 -1.91,0.42 -1.91,1.26 0,0.35 0.12,0.67 0.35,0.97 0.41,0.521 1.21,1.271 2.4,2.24 1.2,0.97 2.15,1.82 2.88,2.54 0.72,0.73 1.27,1.38 1.64,1.97 0.6,0.91 0.9,1.86 0.9,2.851 0,0.991 -0.17,1.819 -0.52,2.51 -0.34,0.69 -0.83,1.28 -1.45,1.78 -1.32,1.04 -2.95,1.56 -4.9,1.56 -1.95,0 -3.6,-0.39 -4.94,-1.17 z"
   stroke-miterlimit="10"
   stroke="#ffffff"
   fill="none" />
			<rect
   id="rect1397"
   height="18.139999"
   width="6.5300002"
   stroke-miterlimit="10"
   stroke="#ffffff"
   fill="none"
   y="494.85001"
   x="534.21997" />
			<path
   id="path1399"
   d="m 553.46,513.14 c -0.35,0 -0.52,-0.17 -0.52,-0.5 0,-0.26 0.19,-0.55 0.56,-0.88 0.34,-0.311 0.62,-0.62 0.84,-0.92 0.03,-0.05 1.18,-1.73 3.55,-5.181 l -5.21,-10.81 h 6.8 l 3.07,6.41 2.68,-3.84 c 0.5,-0.74 0.87,-1.431 1.11,-2.07 0.19,-0.43 0.44,-0.64 0.77,-0.64 0.32,0 0.48,0.18 0.48,0.55 0,0.21 -0.22,0.64 -0.66,1.31 l -3.85,5.78 5.13,10.64 h -6.77 l -3.01,-6.229 -3.29,4.72 c -0.65,0.91 -1.1,1.43 -1.37,1.58 -0.1,0.05 -0.2,0.08 -0.31,0.08 z"
   stroke-miterlimit="10"
   stroke="#ffffff"
   fill="none" />
			<path
   id="path1401"
   d="m 599.95,511.22 0.04,1.28 c 0,0.22 -0.061,0.39 -0.181,0.51 -0.119,0.12 -0.27,0.18 -0.43,0.18 -0.17,0 -0.31,-0.05 -0.42,-0.16 -0.11,-0.109 -0.17,-0.239 -0.17,-0.37 0,-0.13 0.02,-0.26 0.04,-0.369 0.02,-0.12 0.04,-0.25 0.05,-0.391 0.05,-0.25 0.07,-0.87 0.07,-1.859 v -15.95 l 13.939,11.05 v -7.64 c 0,-0.58 -0.02,-1 -0.06,-1.24 -0.04,-0.41 -0.061,-0.69 -0.061,-0.851 0,-0.43 0.19,-0.64 0.551,-0.64 0.149,0 0.29,0.05 0.42,0.15 0.13,0.1 0.2,0.25 0.2,0.45 v 0.449 l -0.051,1.86 v 16.08 l -13.939,-10.94 v 8.401 z"
   stroke-miterlimit="10"
   stroke="#ffffff"
   fill="none" />
			<path
   id="path1403"
   d="m 634.73,511.91 c 0.439,0 0.649,0.171 0.649,0.511 0,0.16 -0.09,0.3 -0.28,0.41 -0.18,0.119 -0.51,0.18 -0.97,0.18 h -10.86 v -18.14 c 3.37,0 6.73,0 10.101,0 l 1.05,-0.04 c 0.64,0 0.96,0.189 0.96,0.569 0,0.141 -0.05,0.28 -0.16,0.4 -0.1,0.12 -0.22,0.189 -0.359,0.189 -0.221,0 -0.46,-0.029 -0.71,-0.08 -0.36,-0.079 -0.87,-0.119 -1.511,-0.119 h -2.83 v 3.909 h 2.33 c 0.021,0 0.53,-0.02 1.58,-0.06 0.19,0 0.351,0.05 0.48,0.13 0.13,0.09 0.2,0.22 0.2,0.38 0,0.36 -0.24,0.54 -0.721,0.54 l -0.55,-0.01 c -0.28,-0.03 -0.52,-0.04 -0.71,-0.04 h -2.61 v 11.44 h 2.83 c 0.63,0 1.08,-0.03 1.351,-0.08 0.31,-0.059 0.56,-0.089 0.74,-0.089 z"
   stroke-miterlimit="10"
   stroke="#ffffff"
   fill="none" />
			<path
   id="path1405"
   d="m 660.48,495.34 -0.08,1.59 v 7.67 c 0,2.53 -0.721,4.58 -2.181,6.16 -1.479,1.62 -3.46,2.43 -5.92,2.43 -2.63,0 -4.68,-0.83 -6.149,-2.479 -1.37,-1.511 -2.061,-3.45 -2.061,-5.82 V 494.8 h 6.561 v 17.3 c 0.649,0.09 1.38,0.14 2.17,0.14 0.79,0 1.59,-0.159 2.41,-0.479 0.819,-0.311 1.529,-0.811 2.149,-1.48 1.33,-1.46 2.01,-3.58 2.021,-6.38 v -6.95 c 0,-0.25 -0.021,-0.56 -0.051,-0.909 -0.04,-0.351 -0.06,-0.591 -0.06,-0.71 0,-0.45 0.21,-0.671 0.63,-0.671 0.371,-10e-4 0.561,0.229 0.561,0.679 z"
   stroke-miterlimit="10"
   stroke="#ffffff"
   fill="none" />
			<path
   id="path1407"
   d="m 679.58,501.371 -0.521,-0.011 c -0.189,-0.02 -0.43,-0.029 -0.72,-0.029 h -2.87 v 11.68 h -6.54 v -18.14 h 10.181 l 1.27,-0.04 h 0.23 c 0.64,0 0.96,0.189 0.96,0.569 0,0.141 -0.061,0.28 -0.17,0.4 -0.12,0.12 -0.25,0.189 -0.381,0.189 -0.229,0 -0.439,-0.02 -0.64,-0.069 -0.399,-0.08 -0.91,-0.13 -1.54,-0.13 h -3.37 v 4.619 h 2.57 c 0.02,0 0.53,-0.02 1.59,-0.06 0.46,0 0.7,0.17 0.7,0.51 0,0.34 -0.249,0.512 -0.749,0.512 z"
   stroke-miterlimit="10"
   stroke="#ffffff"
   fill="none" />
			<path
   id="path1409"
   d="m 576.84,369.85 c -0.84,-0.82 -1.52,-1.82 -2.02,-3 -0.5,-1.18 -0.75,-2.46 -0.75,-3.85 0,-1.39 0.24,-2.63 0.71,-3.74 0.48,-1.11 1.13,-2.07 1.97,-2.88 1.8,-1.73 4.05,-2.59 6.76,-2.59 2.69,0 4.9,0.85 6.61,2.55 1.75,1.73 2.62,3.97 2.62,6.72 0,2.75 -0.89,5 -2.68,6.77 -1.12,1.1 -2.5,1.85 -4.13,2.27 -0.81,0.21 -1.75,0.31 -2.83,0.31 -1.07,0 -2.17,-0.22 -3.3,-0.66 -1.13,-0.44 -2.11,-1.07 -2.96,-1.9 z"
   stroke-miterlimit="10"
   stroke="#ffffff"
   fill="none" />
			<path
   id="path1411"
   d="m 583.5,354.73 c -0.47,0 -0.91,0.03 -1.32,0.1 v 16.54 c 0.39,0.07 0.83,0.1 1.32,0.1 2.28,0 4.2,-0.76 5.77,-2.28 1.63,-1.58 2.44,-3.62 2.44,-6.13 0,-2.38 -0.76,-4.37 -2.29,-5.95 -1.55,-1.59 -3.52,-2.38 -5.92,-2.38 z"
   stroke-miterlimit="10"
   stroke="#ffffff"
   fill="none" />
			<path
   id="path1413"
   d="m 622.76,369.85 c -0.84,-0.82 -1.52,-1.82 -2.02,-3 -0.5,-1.18 -0.75,-2.46 -0.75,-3.85 0,-1.39 0.24,-2.63 0.71,-3.74 0.479,-1.11 1.13,-2.07 1.97,-2.88 1.8,-1.73 4.05,-2.59 6.76,-2.59 2.69,0 4.9,0.85 6.62,2.55 1.74,1.73 2.61,3.97 2.61,6.72 0,2.75 -0.891,5 -2.68,6.77 -1.12,1.1 -2.49,1.85 -4.131,2.27 -0.81,0.21 -1.75,0.31 -2.819,0.31 -1.08,0 -2.181,-0.22 -3.311,-0.66 -1.119,-0.44 -2.109,-1.07 -2.959,-1.9 z"
   stroke-miterlimit="10"
   stroke="#ffffff"
   fill="none" />
			<path
   id="path1415"
   d="m 629.42,354.73 c -0.47,0 -0.91,0.03 -1.32,0.1 v 16.54 c 0.391,0.07 0.83,0.1 1.32,0.1 2.28,0 4.2,-0.76 5.771,-2.28 1.63,-1.58 2.449,-3.62 2.449,-6.13 0,-2.38 -0.77,-4.37 -2.3,-5.95 -1.55,-1.59 -3.52,-2.38 -5.92,-2.38 z"
   stroke-miterlimit="10"
   stroke="#ffffff"
   fill="none" />
			<path
   id="path1417"
   d="m 680.61,370.98 c -1.58,1.03 -3.37,1.54 -5.391,1.54 -1.25,0 -2.45,-0.22 -3.58,-0.66 -1.12,-0.44 -2.109,-1.07 -2.96,-1.89 -1.84,-1.8 -2.77,-4.13 -2.77,-6.97 0,-2.61 0.899,-4.78 2.689,-6.5 1.79,-1.73 4.04,-2.59 6.75,-2.59 2.69,0 4.9,0.85 6.62,2.55 1.74,1.72 2.61,3.96 2.61,6.72 0,1.54 -0.28,2.93 -0.86,4.16 -0.569,1.22 -1.359,2.25 -2.37,3.08 l 1.21,0.95 c 0.58,0.44 0.96,0.67 1.141,0.72 0.18,0.04 0.359,0.07 0.55,0.09 0.38,0.02 0.58,0.18 0.58,0.46 0,0.35 -0.24,0.52 -0.7,0.52 -0.36,0 -0.7,-0.1 -1.03,-0.3 -0.33,-0.2 -0.68,-0.44 -1.06,-0.73 z"
   stroke-miterlimit="10"
   stroke="#ffffff"
   fill="none" />
			<path
   id="path1419"
   d="m 675.34,354.84 c -0.47,0 -0.91,0.04 -1.32,0.1 v 16.54 c 0.391,0.07 0.91,0.11 1.561,0.11 1.47,0 2.88,-0.42 4.22,-1.26 -0.92,-0.67 -1.75,-1 -2.5,-1 -0.25,0 -0.439,-0.05 -0.56,-0.15 -0.13,-0.09 -0.2,-0.22 -0.2,-0.36 0,-0.34 0.229,-0.51 0.7,-0.51 0.89,0 2,0.49 3.33,1.48 0.899,-0.73 1.63,-1.66 2.17,-2.77 0.55,-1.12 0.819,-2.33 0.819,-3.65 0,-1.31 -0.199,-2.47 -0.609,-3.49 -0.4,-1.02 -0.96,-1.9 -1.69,-2.65 -1.551,-1.59 -3.521,-2.39 -5.921,-2.39 z"
   stroke-miterlimit="10"
   stroke="#ffffff"
   fill="none" />
			<path
   id="path1421"
   d="m 535.61,394.58 c 0.13,0.01 0.26,0.01 0.37,0.01 h 0.29 c 2.32,0 4.3,-0.72 5.94,-2.17 1.74,-1.52 2.6,-3.54 2.6,-6.06 0,-1.59 -0.38,-3.02 -1.14,-4.3 -1.1,-1.85 -2.84,-2.98 -5.23,-3.37 -0.78,-0.13 -1.72,-0.2 -2.83,-0.22 z"
   stroke-miterlimit="10"
   stroke="#ffffff"
   fill="none" />
			<path
   id="path1423"
   d="m 529.07,377.5 h 5.33 c 2.49,0 4.31,0.17 5.48,0.52 1.32,0.41 2.35,0.94 3.07,1.58 0.72,0.64 1.29,1.3 1.7,1.99 0.83,1.39 1.25,2.97 1.25,4.74 0,2.79 -1,5.05 -3,6.77 -1.42,1.24 -3.09,2.01 -5.01,2.3 -1.07,0.16 -2.57,0.24 -4.49,0.24 h -4.33 V 377.5 Z"
   stroke-miterlimit="10"
   stroke="#ffffff"
   fill="none" />
			<path
   id="path1425"
   d="m 652.38,378.2 c -0.47,0 -0.91,0.03 -1.32,0.1 v 16.54 c 0.391,0.07 0.83,0.1 1.32,0.1 2.28,0 4.2,-0.76 5.771,-2.28 1.63,-1.58 2.449,-3.62 2.449,-6.13 0,-2.38 -0.77,-4.37 -2.3,-5.95 -1.55,-1.59 -3.52,-2.38 -5.92,-2.38 z"
   stroke-miterlimit="10"
   stroke="#ffffff"
   fill="none" />
			<path
   id="path1427"
   d="m 645.72,393.32 c -0.84,-0.82 -1.52,-1.82 -2.02,-3 -0.5,-1.18 -0.75,-2.46 -0.75,-3.85 0,-1.39 0.24,-2.63 0.71,-3.74 0.479,-1.11 1.13,-2.07 1.97,-2.88 1.8,-1.73 4.05,-2.59 6.76,-2.59 2.69,0 4.9,0.85 6.62,2.55 1.74,1.73 2.61,3.97 2.61,6.72 0,2.75 -0.89,5 -2.68,6.77 -1.12,1.1 -2.49,1.85 -4.131,2.27 -0.81,0.21 -1.75,0.31 -2.819,0.31 -1.08,0 -2.181,-0.22 -3.311,-0.66 -1.119,-0.44 -2.109,-1.07 -2.959,-1.9 z"
   stroke-miterlimit="10"
   stroke="#ffffff"
   fill="none" />
			<path
   id="path1429"
   d="m 506.11,447.91 h 5.33 c 2.49,0 4.31,0.181 5.48,0.53 1.32,0.41 2.34,0.931 3.07,1.57 0.72,0.64 1.29,1.31 1.7,1.99 0.83,1.39 1.25,2.97 1.25,4.739 0,2.79 -1,5.051 -3,6.771 -1.42,1.24 -3.09,2.01 -5.01,2.3 -1.07,0.16 -2.57,0.24 -4.49,0.24 h -4.33 v -18.14 z"
   stroke-miterlimit="10"
   stroke="#ffffff"
   fill="none" />
			<path
   id="path1431"
   d="m 512.65,464.99 c 0.13,0.011 0.26,0.011 0.37,0.011 h 0.29 c 2.32,0 4.3,-0.721 5.94,-2.16 1.73,-1.53 2.6,-3.55 2.6,-6.07 0,-1.59 -0.38,-3.02 -1.14,-4.3 -1.1,-1.85 -2.84,-2.97 -5.23,-3.37 -0.78,-0.13 -1.72,-0.2 -2.83,-0.21 z"
   stroke-miterlimit="10"
   stroke="#ffffff"
   fill="none" />
			<path
   id="path1433"
   d="m 668.68,463.73 c -0.84,-0.82 -1.52,-1.82 -2.02,-3 -0.5,-1.17 -0.75,-2.46 -0.75,-3.84 0,-1.39 0.24,-2.64 0.71,-3.75 0.479,-1.11 1.13,-2.06 1.97,-2.88 1.8,-1.72 4.05,-2.59 6.76,-2.59 2.69,0 4.9,0.85 6.62,2.55 1.74,1.729 2.61,3.97 2.61,6.72 0,2.75 -0.89,5 -2.68,6.771 -1.12,1.1 -2.49,1.85 -4.131,2.27 -0.81,0.21 -1.75,0.311 -2.819,0.311 -1.08,0 -2.181,-0.221 -3.311,-0.66 -1.119,-0.442 -2.109,-1.072 -2.959,-1.902 z"
   stroke-miterlimit="10"
   stroke="#ffffff"
   fill="none" />
			<path
   id="path1435"
   d="m 675.34,448.61 c -0.47,0 -0.91,0.03 -1.32,0.101 v 16.54 c 0.391,0.069 0.83,0.1 1.32,0.1 2.28,0 4.2,-0.76 5.771,-2.28 1.63,-1.58 2.449,-3.62 2.449,-6.13 0,-2.38 -0.77,-4.359 -2.3,-5.95 -1.55,-1.591 -3.52,-2.381 -5.92,-2.381 z"
   stroke-miterlimit="10"
   stroke="#ffffff"
   fill="none" />
			<path
   id="path1437"
   d="m 588.77,511.93 c -1.58,1.03 -3.37,1.54 -5.39,1.54 -1.26,0 -2.45,-0.22 -3.58,-0.66 -1.13,-0.439 -2.11,-1.07 -2.96,-1.89 -1.85,-1.811 -2.77,-4.13 -2.77,-6.98 0,-2.6 0.9,-4.77 2.69,-6.5 1.79,-1.72 4.04,-2.59 6.75,-2.59 2.69,0 4.9,0.85 6.61,2.55 1.75,1.73 2.62,3.971 2.62,6.721 0,1.55 -0.29,2.939 -0.86,4.159 -0.57,1.23 -1.36,2.261 -2.37,3.091 l 1.2,0.939 c 0.59,0.44 0.97,0.68 1.15,0.72 0.18,0.051 0.36,0.08 0.55,0.091 0.38,0.029 0.57,0.18 0.57,0.46 0,0.35 -0.23,0.529 -0.69,0.529 -0.36,0 -0.7,-0.1 -1.03,-0.3 -0.33,-0.2 -0.68,-0.45 -1.06,-0.74 z"
   stroke-miterlimit="10"
   stroke="#ffffff"
   fill="none" />
			<path
   id="path1439"
   d="m 583.5,495.791 c -0.47,0 -0.91,0.029 -1.32,0.1 v 16.54 c 0.39,0.07 0.91,0.1 1.56,0.1 1.47,0 2.88,-0.42 4.22,-1.25 -0.92,-0.67 -1.75,-1 -2.5,-1 -0.25,0 -0.44,-0.05 -0.57,-0.149 -0.12,-0.101 -0.19,-0.221 -0.19,-0.37 0,-0.34 0.23,-0.51 0.69,-0.51 0.9,0 2.01,0.5 3.34,1.489 0.9,-0.739 1.63,-1.659 2.17,-2.779 0.54,-1.11 0.81,-2.33 0.81,-3.641 0,-1.31 -0.2,-2.479 -0.6,-3.489 -0.4,-1.021 -0.96,-1.91 -1.69,-2.66 -1.55,-1.591 -3.52,-2.381 -5.92,-2.381 z"
   stroke-miterlimit="10"
   stroke="#ffffff"
   fill="none" />
			<path
   id="path1441"
   d="m 554.66,392.66 c 0.82,0.07 1.56,0.1 2.21,0.1 h 3.75 l -3.2,-6.91 z"
   stroke-miterlimit="10"
   stroke="#ffffff"
   fill="none" />
			<path
   id="path1443"
   d="m 557.46,393.7 c -1.57,0 -2.63,-0.01 -3.21,-0.04 l -0.37,0.89 c -0.11,0.24 -0.21,0.5 -0.31,0.78 -0.19,0.53 -0.47,0.79 -0.82,0.79 -0.16,0 -0.29,-0.05 -0.4,-0.15 -0.1,-0.1 -0.15,-0.21 -0.15,-0.32 0,-0.19 0.08,-0.4 0.24,-0.63 0.26,-0.36 0.51,-0.83 0.76,-1.41 -0.73,-0.07 -1.1,-0.28 -1.1,-0.64 0,-0.36 0.21,-0.54 0.63,-0.54 0.25,0 0.55,0.04 0.89,0.13 l 6.4,-15.54 8.77,18.96 h -6.68 l -1.06,-2.28 h -3.59 z"
   stroke-miterlimit="10"
   stroke="#ffffff"
   fill="none" />
			<path
   id="path1445"
   d="m 672.26,417.17 c -1.56,0 -2.63,-0.01 -3.21,-0.04 l -0.37,0.89 c -0.109,0.24 -0.21,0.5 -0.3,0.78 -0.2,0.53 -0.47,0.79 -0.83,0.79 -0.16,0 -0.29,-0.05 -0.39,-0.15 -0.11,-0.1 -0.16,-0.21 -0.16,-0.32 0,-0.19 0.08,-0.4 0.25,-0.63 0.25,-0.36 0.5,-0.83 0.75,-1.41 -0.73,-0.07 -1.1,-0.28 -1.1,-0.64 0,-0.36 0.21,-0.54 0.63,-0.54 0.26,0 0.55,0.04 0.899,0.13 l 6.391,-15.54 8.77,18.96 h -6.68 l -1.061,-2.28 h -3.589 z"
   stroke-miterlimit="10"
   stroke="#ffffff"
   fill="none" />
			<path
   id="path1447"
   d="m 669.46,416.13 c 0.83,0.07 1.56,0.1 2.21,0.1 h 3.76 l -3.21,-6.91 z"
   stroke-miterlimit="10"
   stroke="#ffffff"
   fill="none" />
		</g>
	</g>
</g>
</svg>
